<svg width="86" height="102" viewBox="0 0 86 102" fill="none" xmlns="http://www.w3.org/2000/svg">
<g clip-path="url(#clip0)">
<path d="M5.82497 1.41882C6.26542 1.44199 6.85075 1.44199 7.34625 1.81267C11.5653 4.96931 16.1957 4.616 20.8813 3.28674C24.3498 2.3021 27.7198 0.993106 31.3158 0.460242C38.9541 -0.669198 46.2939 0.234353 53.2859 3.57923C53.8423 3.84566 54.3755 4.21346 54.8217 4.63627C55.3607 5.14886 55.4766 5.8439 55.0188 6.47234C54.5493 7.11814 53.9176 7.36141 53.1324 6.92701C47.1979 3.64005 40.7883 2.75098 34.1236 3.19407C30.1944 3.45471 26.4738 4.65075 22.7764 5.88445C19.0065 7.14421 15.1874 7.63363 11.2494 6.99941C9.55138 6.72718 7.97215 6.10455 6.63632 5.04751C5.53231 4.17291 5.11794 4.58125 4.69488 5.67594C3.81979 7.94061 3.3069 10.2777 3.10986 12.6872C3.06639 13.2258 2.98815 13.7471 2.70998 14.2076C2.35936 14.7868 1.79141 14.8736 1.1858 14.7723C0.394737 14.6391 -0.0399138 14.057 0.000653607 13.3474C0.209286 9.67531 0.759844 6.064 2.69549 2.83786C3.35036 1.76055 4.45727 1.40434 5.82497 1.41882Z" fill="#14AC99"/>
<path d="M11.2077 36.5016C11.1701 36.7159 11.1324 36.9302 11.0947 37.1445C10.7267 36.9389 10.6572 36.5972 10.6717 36.2178C10.8484 36.3133 11.0281 36.406 11.2077 36.5016Z" fill="#A4D5D2"/>
<path d="M66.6117 2.5338C60.6106 3.94994 56.777 7.87113 55.1137 13.6081C53.4302 19.4204 54.9891 24.6563 59.3327 28.9598C59.7413 29.3652 60.0919 29.7562 59.9239 30.3296C59.156 32.9302 58.3562 35.5221 57.5681 38.1169C57.2319 37.3495 57.1131 36.64 56.9885 35.9305C56.4032 32.5653 55.899 29.1654 54.4531 26.0348C52.1146 20.9726 47.5392 19.4088 42.6016 21.8994C40.9673 22.7247 39.3533 23.5877 37.7422 24.4623C35.453 25.7047 33.1436 25.7684 30.8254 24.6013C29.0202 23.692 27.2584 22.6929 25.4532 21.7806C24.0188 21.0537 22.5004 20.5875 20.8633 20.7989C17.2962 21.2622 15.0331 23.4313 13.6683 26.5735C12.2977 29.7301 11.8892 33.1561 11.2082 36.5039C11.0488 36.6747 11.0372 36.8601 11.1445 37.0628C11.0025 36.8804 10.9358 36.6545 10.8112 36.4633C10.762 36.3851 10.7214 36.3012 10.6692 36.223C10.2056 34.2566 9.74199 32.2931 9.27836 30.3267C9.15666 29.8054 9.01178 29.2986 8.6119 28.9077C5.93445 26.3071 4.32624 23.1417 3.55546 19.5073C3.33814 18.4763 2.79048 17.6712 1.53289 18.0071C0.301376 18.3344 0.402794 19.3306 0.599836 20.2428C1.28658 23.4313 2.35583 26.5272 4.60732 28.9308C6.16916 30.596 6.7458 32.5132 7.17755 34.5925C7.29346 35.1572 7.33982 35.7538 7.55715 36.278C8.08452 37.5522 7.80635 38.1517 6.40387 38.673C2.91508 39.9675 1.1417 43.2081 1.643 46.8368C2.10373 50.1643 4.98112 52.9329 8.50758 53.2428C9.66086 53.3441 9.83182 53.8162 9.81154 54.7892C9.77676 56.3299 9.67245 57.9053 9.93034 59.4083C10.5736 63.1413 13.1497 65.4523 16.2589 67.2275C18.7827 68.6697 21.5065 69.6341 24.3781 70.1438C24.9142 70.2394 25.4735 70.3552 25.4068 71.0908C25.3373 71.8698 24.7056 71.5455 24.2883 71.6179C24.1 71.6526 23.9029 71.615 23.7088 71.6266C17.1861 72.0204 12.1239 74.8064 9.2349 80.8185C6.23001 87.0738 6.80375 93.5406 8.46702 100.031C8.84082 101.487 9.6029 102.003 11.1358 102C26.5398 101.948 41.9409 101.951 57.3449 101.997C58.8314 102.003 59.5356 101.429 59.9181 100.065C60.7671 97.0274 61.222 93.9315 61.2684 90.7952C61.3292 86.8306 60.5324 83.0368 58.4692 79.5848C57.9882 78.7797 57.3015 78.2092 56.3134 78.7826C55.3687 79.3328 55.3716 80.1726 55.8642 81.0299C58.9879 86.4743 58.5446 92.22 57.3044 98.0294C56.974 99.5874 55.7078 98.9069 54.8124 98.9648C53.9518 99.0198 53.3722 98.6578 53.4099 97.6008C53.4592 96.1586 53.407 94.7077 53.3433 93.2655C53.2998 92.2895 52.8564 91.5163 51.764 91.609C50.7267 91.6987 50.3413 92.4662 50.35 93.4595C50.3616 94.7627 50.2514 96.0746 50.3789 97.3662C50.518 98.7823 49.9182 99.0691 48.6461 99.0285C45.2211 98.9214 41.796 98.9069 38.3681 98.8895C32.0917 98.8605 25.8154 98.8258 19.539 98.875C18.1916 98.8866 17.812 98.3393 17.9946 97.1548C18.1887 95.9008 17.9772 94.6526 17.9598 93.4016C17.9482 92.4169 17.6874 91.6003 16.5718 91.5974C15.4301 91.5945 15.0129 92.4025 15.0013 93.445C14.9868 94.7482 15.0215 96.0514 14.9839 97.3546C14.9665 98.0091 15.3142 98.8605 14.1551 99.0169C12.2427 99.2747 11.3589 98.9851 11.072 97.8035C9.99409 93.3842 9.74489 88.9533 10.9851 84.5196C12.6165 78.687 17.9685 74.6703 23.9667 74.6789C25.0736 74.6818 25.4155 74.9628 25.4792 76.1298C25.7835 81.7104 31.5759 85.7417 36.7425 83.9201C40.2226 82.6922 42.5552 80.2972 42.8421 76.431C42.9493 74.9714 43.5259 74.5834 44.9197 74.6876C46.9742 74.8411 48.9185 75.2379 50.7122 76.2862C51.3323 76.6482 51.9727 77.0015 52.7116 77.0826C53.2998 77.1492 53.7286 76.9089 54.0648 76.431C54.4299 75.9126 54.3024 75.4232 54.0155 74.9454C53.6243 74.2909 52.9695 73.9578 52.3233 73.6306C49.7907 72.3506 47.1075 71.67 44.262 71.615C43.7809 71.6063 43.0536 71.8872 42.9638 71.1111C42.8798 70.361 43.5781 70.2394 44.1431 70.1062C46.3483 69.582 48.5418 68.9883 50.5789 67.9805C55.8874 65.3509 59.3646 61.9365 58.5417 54.8703C58.42 53.8306 58.7097 53.3383 59.9181 53.237C64.6123 52.8373 67.8519 48.0966 66.519 43.6222C65.7888 41.178 64.1892 39.4549 61.761 38.534C61.3234 38.3689 60.6106 38.3747 60.8772 37.532C61.4278 35.7886 61.9609 34.0394 62.4999 32.2902C62.6042 31.9485 62.752 31.5894 63.1808 31.7718C63.8328 32.0498 64.6616 32.2612 65.0238 32.7767C65.3947 33.3038 64.4906 33.6658 64.2095 34.1407C64.1603 34.2218 64.082 34.2855 64.0183 34.3579C63.3489 35.1138 63.149 35.9392 63.6097 36.8833C64.0791 37.8447 64.9252 38.1633 65.8844 38.0967C69.1153 37.8737 71.8362 36.5618 73.9109 34.0481C74.6672 33.1329 75.5365 32.4726 76.6405 31.9977C82.2012 29.5969 85.2177 25.1458 85.8899 19.3161C87.1301 8.62119 77.165 0.0461362 66.6117 2.5338ZM7.12539 49.7299C5.55486 48.8553 4.53487 47.5637 4.6218 45.6784C4.71453 43.7004 5.60412 42.2148 7.50209 41.4039C8.34821 41.0419 8.8553 41.1172 9.04365 42.1308C9.40876 44.103 10.1708 46.0028 10.1361 48.0502C10.0694 50.3757 9.19433 50.8825 7.12539 49.7299ZM38.7535 78.9824C37.267 80.8996 34.633 81.7191 32.4018 80.9488C30.0547 80.1408 28.4291 77.9196 28.403 75.4753C28.3914 74.3227 28.4175 73.173 28.3856 72.0204C28.3624 71.2153 28.6841 70.8823 29.507 70.9547C32.6307 71.2356 35.7602 71.2848 38.881 70.9199C39.6257 70.8331 39.9647 71.1111 39.9415 71.8669C39.9183 72.5417 39.9357 73.2165 39.9357 73.5843C40.0024 75.6954 39.9299 77.4678 38.7535 78.9824ZM51.964 63.7494C48.281 66.2748 44.0678 67.2275 39.7358 67.7923C37.919 68.0297 36.0905 68.2151 34.2447 68.1195C28.7217 67.9834 23.2683 67.4216 18.2525 64.8499C14.5087 62.9299 12.5527 60.1005 12.7816 55.5769C13.1699 48.0155 13.5524 40.4685 14.9839 33.02C15.291 31.4185 15.717 29.8257 16.2473 28.285C17.6961 24.0713 20.8314 22.8058 24.7635 24.7954C25.7951 25.3166 26.8006 25.89 27.7916 26.4837C31.8049 28.8816 35.8645 29.1104 39.9995 26.8023C41.3875 26.0262 42.7668 25.2298 44.1837 24.5144C47.0524 23.0693 49.5357 23.802 51.2598 26.5214C52.6101 28.6528 53.0535 31.0768 53.4968 33.4862C54.908 41.1838 55.334 48.9741 55.5803 56.7817C55.6817 59.8051 54.4038 62.0756 51.964 63.7494ZM63.6792 46.553C63.3982 48.4991 61.1409 50.4597 59.3096 50.341C58.8083 50.3091 58.5446 50.034 58.4316 49.5446C58.2606 48.7916 58.0809 48.0415 58.1476 47.2567C58.2258 45.3077 58.9184 43.5093 59.5848 41.708C59.7703 41.207 60.0948 41.1404 60.6193 41.2823C62.6535 41.8412 64.0241 44.158 63.6792 46.553ZM76.0871 28.8961C74.2442 29.8025 72.52 30.6887 71.3233 32.4669C70.6047 33.5326 69.4282 34.1465 67.9156 34.5346C68.2779 33.828 68.5502 33.3443 68.782 32.8375C69.5007 31.2592 69.1935 30.5236 67.4955 30.0574C65.131 29.4087 62.978 28.4096 61.2162 26.672C57.6985 23.2025 56.5973 17.6886 58.4837 13.026C60.3469 8.42716 64.9166 5.29369 69.8513 5.22998C76.9796 5.1373 82.5837 10.0576 82.9546 17.1267C83.1922 21.6995 81.3087 26.3273 76.0871 28.8961Z" fill="#13AC99"/>
<path d="M27.3395 35.9305C28.3798 36.5705 29.3331 37.1584 28.7449 38.3892C28.1654 39.6084 27.1454 39.3565 26.1544 38.8786C24.4477 38.0561 22.7873 38.2849 21.1936 39.1827C20.2808 39.6953 19.4144 40.0804 18.7248 38.9307C18.038 37.781 18.6494 37.0541 19.6143 36.4605C22.1672 34.8937 24.8012 35.0211 27.3395 35.9305Z" fill="#17AD99"/>
<path d="M40.4951 35.6904C42.9494 34.3553 47.6958 35.395 49.3648 37.651C49.8459 38.3026 49.8285 39.0092 49.3417 39.6579C48.8693 40.2863 48.2319 40.3616 47.5335 40.072C47.3597 39.9996 47.18 39.9069 47.0438 39.7795C45.4269 38.2417 43.5724 37.8595 41.4484 38.5284C40.6313 38.7862 39.901 38.5603 39.562 37.6741C39.194 36.7069 39.6982 36.1219 40.4951 35.6904Z" fill="#17AD99"/>
<path d="M40.683 57.0111C37.9476 59.8058 31.1671 60.3618 28.0086 58.0276C27.0958 57.3529 26.8322 56.3972 27.2147 55.3314C27.5856 54.2947 28.4114 53.9356 29.4632 54.0369C29.7269 54.063 30.0051 54.1122 30.2369 54.2281C33.0332 55.621 35.6701 55.372 38.2403 53.6054C39.2255 52.9278 40.2976 52.9278 41.1177 53.9732C42.0102 55.1142 41.5755 56.1047 40.683 57.0111Z" fill="#17AD99"/>
<path d="M24.8244 43.6113C24.8244 43.8517 24.8158 44.0921 24.8273 44.3324C24.8795 45.4619 24.4333 46.2756 23.2394 46.2872C22.0832 46.2988 21.7326 45.4271 21.695 44.4135C21.6747 43.8372 21.6718 43.258 21.7037 42.6846C21.7616 41.6362 22.2426 40.8746 23.3756 40.9528C24.3927 41.0223 24.8737 41.7115 24.8273 42.7454C24.8129 43.035 24.8244 43.3246 24.8244 43.6113Z" fill="#20AE9B"/>
<path d="M43.3836 43.5326C43.3836 44.0625 43.4648 44.607 43.3633 45.1138C43.2213 45.8378 42.7374 46.333 41.9493 46.2953C41.2191 46.2606 40.6106 45.8899 40.5236 45.1109C40.428 44.2537 40.4541 43.382 40.4744 42.519C40.4975 41.5633 40.993 40.9233 41.9696 40.9377C43.0214 40.9551 43.4908 41.6299 43.4532 42.6667C43.4416 42.9563 43.4503 43.243 43.4503 43.5326C43.4329 43.5326 43.4097 43.5326 43.3836 43.5326Z" fill="#1AAD99"/>
<path d="M63.6172 18.9189L66.9908 22.2762L75.2374 14.0693" stroke="#13AC99" stroke-width="2.33333" stroke-linecap="round" stroke-linejoin="round"/>
</g>
<defs>
<clipPath id="clip0">
<rect width="86" height="102" fill="white"/>
</clipPath>
</defs>
</svg>
