<svg width="18" height="22" viewBox="0 0 18 22" fill="none" xmlns="http://www.w3.org/2000/svg">
<path d="M15.0674 7.62772H14.4828V5.99376C14.4823 2.87061 11.9598 0.330078 8.85884 0.330078C5.75784 0.330078 3.23533 2.87061 3.23533 5.99376V7.62772H2.65071C1.44774 7.62772 0.472656 8.60977 0.472656 9.82133V19.3819C0.472656 20.5935 1.44774 21.5755 2.65071 21.5755H15.0674C16.2704 21.5755 17.2455 20.5935 17.2455 19.3819V9.82133C17.245 8.60977 16.2699 7.62772 15.0674 7.62772ZM5.32048 6.13058C5.32048 4.1656 6.90779 2.56651 8.85928 2.56651C10.8108 2.56651 12.3981 4.16516 12.3981 6.13058V7.62728H5.32048V6.13058ZM15.5823 18.1972C15.5823 19.099 14.8566 19.8299 13.9613 19.8299H3.75683C2.86151 19.8299 2.13578 19.099 2.13578 18.1972V11.0055C2.13578 10.1038 2.86151 9.3729 3.75683 9.3729H13.9608C14.8562 9.3729 15.5819 10.1038 15.5819 11.0055V18.1972H15.5823Z" fill="#9F9F9F"/>
<path d="M8.85487 18.8729C9.52231 18.8729 10.0653 18.326 10.0653 17.6538V15.4964C10.6714 15.0925 11.0386 14.4128 11.0386 13.6687C11.0386 12.4589 10.0613 11.4746 8.86013 11.4746C7.65892 11.4746 6.68164 12.4589 6.68164 13.6687C6.68164 14.4075 7.04494 15.0841 7.64445 15.4893V17.6538C7.64489 18.3265 8.18743 18.8729 8.85487 18.8729Z" fill="#9F9F9F"/>
</svg>
