<svg width="20" height="19" viewBox="0 0 20 19" fill="none" xmlns="http://www.w3.org/2000/svg">
<path d="M5.20018 4.9478L5.20017 4.94779C4.245 3.9855 4.24499 2.41989 5.20134 1.4576C6.13212 0.52088 7.75052 0.519677 8.6825 1.4576C8.9389 1.71522 9.39235 2.34964 9.75913 3.08463C9.96072 3.48859 10.1408 3.93198 10.2458 4.36684C10.3508 3.93197 10.5309 3.48856 10.7326 3.08461C11.0995 2.34961 11.5533 1.7152 11.8096 1.4576L5.20018 4.9478ZM5.20018 4.9478C5.29511 5.04343 5.41228 5.14433 5.54516 5.2471M5.20018 4.9478L5.54516 5.2471M5.54516 5.2471H2.34546C1.65708 5.2471 1.09641 5.80777 1.09641 6.49615V9.31779C1.09641 9.69579 1.40313 10.0025 1.78113 10.0025H2.22507V16.6541C2.22507 17.3425 2.78573 17.9031 3.47412 17.9031H17.018C17.7064 17.9031 18.2671 17.3425 18.2671 16.6541V10.0025H18.711C19.089 10.0025 19.3957 9.69579 19.3957 9.31779V6.49615C19.3957 5.80777 18.8351 5.2471 18.1467 5.2471H14.9469C15.0797 5.14434 15.1966 5.04339 15.291 4.94766C16.2472 3.98535 16.2471 2.41983 15.2908 1.4576C14.36 0.520905 12.7417 0.51968 11.8097 1.45753L5.54516 5.2471ZM6.17239 2.42299C6.37902 2.21539 6.65193 2.1019 6.94249 2.1019C7.2319 2.1019 7.50486 2.21539 7.71154 2.42309C8.0754 2.78913 8.44733 3.45201 8.6962 4.06448C8.82009 4.36937 8.91086 4.65538 8.95467 4.87876C8.97667 4.99088 8.98586 5.08245 8.98334 5.1505C8.98208 5.18437 8.97802 5.20908 8.973 5.22603C8.97208 5.22912 8.97118 5.2318 8.97033 5.23411C8.95013 5.23962 8.91009 5.2471 8.84202 5.2471C8.48203 5.2471 7.93648 5.05608 7.40806 4.79327C6.88226 4.53177 6.40204 4.21369 6.17239 3.98245C5.7461 3.5531 5.7461 2.85234 6.17239 2.42299ZM9.56135 16.5337H3.59451V10.0025H9.56135V16.5337ZM9.56135 8.63307H2.46585V6.61654H8.84202H9.56135V8.63307ZM12.7806 2.42311C13.1917 2.01109 13.9097 2.01206 14.3198 2.42307C14.7461 2.85242 14.746 3.55312 14.3197 3.98245C14.0901 4.21369 13.6099 4.53177 13.0841 4.79327C12.5557 5.05608 12.0101 5.2471 11.6501 5.2471C11.5815 5.2471 11.5413 5.23976 11.5209 5.2343C11.5201 5.232 11.5192 5.22933 11.5183 5.22625C11.5133 5.20928 11.5093 5.18455 11.5081 5.15066C11.5056 5.08257 11.5149 4.99097 11.537 4.87884C11.581 4.65543 11.6718 4.36939 11.7958 4.06451C12.0448 3.45203 12.4167 2.78916 12.7806 2.42311ZM16.8976 16.5337H10.9308V10.0025H16.8976V16.5337ZM18.0263 8.63307H10.9308V6.61654H11.6501H18.0263V8.63307Z" fill="#9F9F9F" stroke="#9F9F9F" stroke-width="0.240781"/>
</svg>
