<svg width="26" height="17" viewBox="0 0 26 17" fill="none" xmlns="http://www.w3.org/2000/svg">
<path d="M22.9527 0H2.76515C1.24062 0 0 1.21367 0 2.70533V13.8274C0 15.3193 1.24062 16.5327 2.76515 16.5327H22.9527C24.4772 16.5327 25.7176 15.3193 25.7176 13.8274V2.70533C25.7176 1.21367 24.4772 0 22.9527 0ZM24.2049 13.8274C24.2049 14.4915 23.644 15.0298 22.9527 15.0298H2.76515C2.07361 15.0298 1.51271 14.4915 1.51271 13.8274V2.70533C1.51271 2.04101 2.07361 1.50291 2.76515 1.50291H22.9527C23.644 1.50291 24.2049 2.04101 24.2049 2.70533V13.8274Z" fill="#9F9F9F"/>
<path d="M7.22691 8.96474C8.44207 8.96474 9.43039 7.68361 9.43039 6.47632C9.43039 5.26929 8.44207 4.28711 7.22691 4.28711C6.01176 4.28711 5.02344 5.26929 5.02344 6.47632C5.02369 7.68361 6.01176 8.96474 7.22691 8.96474Z" fill="#9F9F9F"/>
<path d="M8.87911 8.98633C8.45169 9.3098 7.91856 9.50246 7.34094 9.50246H7.10897C6.53135 9.50246 5.99797 9.3098 5.57055 8.98633C4.17511 9.21015 3.10938 10.4121 3.10938 11.8621C3.10938 12.6583 4.95204 13.3044 7.22496 13.3044C9.49788 13.3044 11.3405 12.6585 11.3405 11.8621C11.3405 10.4121 10.2748 9.21015 8.87911 8.98633Z" fill="#9F9F9F"/>
<path d="M21.9272 5.26758H13.3175C12.9415 5.26758 12.6367 5.57061 12.6367 5.94392C12.6367 6.31773 12.9415 6.62025 13.3175 6.62025H21.9274C22.3037 6.62025 22.6082 6.31773 22.6082 5.94392C22.6082 5.57061 22.3034 5.26758 21.9272 5.26758Z" fill="#9F9F9F"/>
<path d="M21.9272 8.11816H13.3175C12.9415 8.11816 12.6367 8.42094 12.6367 8.7945C12.6367 9.16831 12.9415 9.47083 13.3175 9.47083H21.9274C22.3037 9.47083 22.6082 9.16831 22.6082 8.7945C22.6082 8.42094 22.3034 8.11816 21.9272 8.11816Z" fill="#9F9F9F"/>
<path d="M17.8433 10.9697H13.3175C12.9415 10.9697 12.6367 11.2728 12.6367 11.6458C12.6367 12.0196 12.9415 12.3224 13.3175 12.3224H17.8435C18.2198 12.3224 18.5245 12.0196 18.5245 11.6458C18.5243 11.2728 18.2195 10.9697 17.8433 10.9697Z" fill="#9F9F9F"/>
</svg>
