<svg width="21" height="23" viewBox="0 0 21 23" fill="none" xmlns="http://www.w3.org/2000/svg">
<path d="M0.999161 20.267H1H0.999161ZM0.999161 20.267H0.999149H0.999161ZM13.5886 1.02253L13.5886 1.02252C13.5455 0.97948 13.4944 0.945336 13.4382 0.922043C13.3819 0.898749 13.3217 0.886761 13.2608 0.886763L2.75154 0.886763L2.75141 0.886763C2.25705 0.887318 1.78309 1.08395 1.43352 1.43352C1.08395 1.78309 0.887318 2.25705 0.886763 2.75141V2.75154L0.886763 20.267L0.886763 20.2671C0.887318 20.7615 1.08395 21.2354 1.43352 21.585C1.78309 21.9346 2.25705 22.1312 2.75141 22.1317L2.75154 22.0185V22.1317H15.713C16.8521 22.1319 17.9575 21.7443 18.8471 21.0327C19.7368 20.3212 20.3578 19.328 20.608 18.2167C20.8583 17.1053 20.7228 15.9418 20.224 14.9177C19.7357 13.915 18.9275 13.1043 17.928 12.6127V5.55401C17.928 5.49314 17.9161 5.43286 17.8928 5.37662C17.8695 5.32038 17.8353 5.26928 17.7923 5.22623L13.5886 1.02253ZM18.604 14.2232C19.3708 14.99 19.8022 16.0298 19.8034 17.1143C19.8034 17.9233 19.5635 18.7141 19.114 19.3867C18.6646 20.0594 18.0257 20.5837 17.2783 20.8933C16.5309 21.2029 15.7084 21.2839 14.9149 21.1261C14.1215 20.9682 13.3926 20.5786 12.8206 20.0066C12.2485 19.4345 11.8589 18.7057 11.7011 17.9122C11.5433 17.1187 11.6243 16.2963 11.9339 15.5488C12.2435 14.8014 12.7677 14.1626 13.4404 13.7131C14.1131 13.2636 14.9039 13.0237 15.7128 13.0237C16.7973 13.0249 17.8371 13.4563 18.604 14.2232ZM12.7972 1.81385L12.7972 4.15278L12.7972 4.1529C12.7978 4.64727 12.9944 5.12123 13.344 5.4708C13.6936 5.82037 14.1675 6.017 14.6619 6.01755H14.662H17.0009V12.2646C15.8718 11.9644 14.6714 12.0675 13.6079 12.5589C12.4986 13.0714 11.6145 13.9713 11.1215 15.0895C10.6286 16.2077 10.5608 17.4674 10.9308 18.632C11.2619 19.6741 11.9231 20.576 12.8092 21.2047H2.75167C2.50304 21.2044 2.26467 21.1055 2.08885 20.9296C1.91306 20.7539 1.81417 20.5155 1.81385 20.2669V2.75158C1.81417 2.50297 1.91307 2.26464 2.08885 2.08885C2.26464 1.91307 2.50297 1.81417 2.75158 1.81385H12.7972ZM13.7243 2.46937L16.3454 5.09046H14.6622C14.4135 5.09019 14.1751 4.99129 13.9993 4.81548C13.8235 4.63966 13.7246 4.40129 13.7243 4.15265V2.46937Z" fill="#696358" stroke="#696358" stroke-width="0.226474"/>
<path d="M15.2146 17.9049L16.7969 15.5312L16.7972 15.5307C16.8474 15.4562 16.9251 15.4047 17.0132 15.3873C17.1013 15.37 17.1927 15.3882 17.2674 15.438C17.3421 15.4878 17.394 15.5652 17.4119 15.6532C17.4297 15.7412 17.412 15.8327 17.3626 15.9077L17.3622 15.9082L15.5501 18.6267L15.5501 18.6267C15.5222 18.6685 15.4854 18.7037 15.4423 18.7295C15.3992 18.7554 15.3509 18.7714 15.3009 18.7764L15.3008 18.7764C15.2897 18.7775 15.2786 18.778 15.2674 18.778L15.2146 17.9049ZM15.2146 17.9049L14.6015 17.2918C14.6015 17.2918 14.6015 17.2918 14.6015 17.2918C14.57 17.2602 14.5325 17.2352 14.4913 17.2181C14.4501 17.201 14.4059 17.1923 14.3613 17.1923C14.3167 17.1923 14.2725 17.201 14.2313 17.2181C14.19 17.2352 14.1526 17.2602 14.121 17.2918C14.0895 17.3233 14.0645 17.3608 14.0474 17.402C14.0303 17.4432 14.0215 17.4874 14.0215 17.532C14.0215 17.5767 14.0303 17.6208 14.0474 17.6621C14.0645 17.7033 14.0895 17.7408 14.121 17.7723L15.0271 18.6785L15.0271 18.6785C15.0587 18.71 15.0961 18.7351 15.1373 18.7521C15.1786 18.7692 15.2227 18.778 15.2674 18.778L15.2146 17.9049Z" fill="#696358" stroke="#696358" stroke-width="0.226474"/>
<rect x="3.26465" y="4.1709" width="4.98242" height="1.35884" rx="0.679421" fill="#696358"/>
<rect x="3.26465" y="12.7764" width="6.79421" height="1.35884" rx="0.679421" fill="#696358"/>
<rect x="3.26465" y="15.9473" width="4.98242" height="1.35884" rx="0.679421" fill="#696358"/>
<rect x="3.26465" y="6.88867" width="9.05895" height="1.35884" rx="0.679421" fill="#696358"/>
<rect x="3.26465" y="10.0586" width="9.05895" height="1.35884" rx="0.679421" fill="#696358"/>
</svg>
