<svg width="70" height="87" viewBox="0 0 70 87" fill="none" xmlns="http://www.w3.org/2000/svg">
<path d="M66.6277 14.0873V72.002C66.6277 78.2694 61.547 83.3501 55.2796 83.3501H14.0873C7.81993 83.3501 2.7392 78.2693 2.7392 72.0019V26.2004C2.7392 23.3745 3.79358 20.6502 5.69606 18.5606L16.7244 6.44753C18.8749 4.0855 21.9213 2.7392 25.1157 2.7392H55.2796C61.547 2.7392 66.6277 7.81993 66.6277 14.0873Z" stroke="#FF4F00" stroke-width="5.47841"/>
<path d="M21.6781 4.33496V14.633C21.6781 18.5231 18.5245 21.6767 14.6344 21.6767H3.09766" stroke="#FF4F00" stroke-width="5.47841"/>
<path d="M41.8047 44.5929L51.0949 35.3027" stroke="#FF4F00" stroke-width="6.26104" stroke-linecap="round" stroke-linejoin="round"/>
<path d="M51.0949 44.5928L41.8047 35.3026" stroke="#FF4F00" stroke-width="6.26104" stroke-linecap="round" stroke-linejoin="round"/>
<path d="M18.5801 44.5929L27.8703 35.3027" stroke="#FF4F00" stroke-width="6.26104" stroke-linecap="round" stroke-linejoin="round"/>
<path d="M27.8703 44.5928L18.5801 35.3026" stroke="#FF4F00" stroke-width="6.26104" stroke-linecap="round" stroke-linejoin="round"/>
<path d="M25.5749 57.7099C30.0926 54.0488 40.1782 54.4045 44.4232 58.4087C45.6499 59.5662 45.8714 61.0267 45.1218 62.5377C44.3943 64.0079 43.115 64.3959 41.5833 64.063C41.1994 63.9786 40.7982 63.8573 40.4769 63.6456C36.6011 61.0975 32.6732 61.0077 28.5783 63.1758C27.0086 64.0076 25.4293 63.8213 24.4039 62.1312C23.2885 60.287 24.1018 58.8965 25.5749 57.7099Z" fill="#FF4F00"/>
</svg>
