<svg width="698" height="591" viewBox="0 0 698 591" fill="none" xmlns="http://www.w3.org/2000/svg">
<path d="M231.937 550.215C231.974 550.468 231.99 550.686 231.985 550.869C231.978 551.042 231.956 551.186 231.919 551.299C231.881 551.412 231.824 551.501 231.748 551.566C231.68 551.618 231.605 551.651 231.52 551.663L229.72 551.928L229.844 556.507L231.392 556.28C231.57 556.254 231.728 556.338 231.864 556.533C232.009 556.716 232.118 557.05 232.189 557.534C232.226 557.787 232.242 558.005 232.236 558.188C232.231 558.372 232.21 558.52 232.173 558.633C232.135 558.746 232.079 558.835 232.002 558.9C231.935 558.953 231.859 558.986 231.774 558.998L229.895 559.274L230.037 564.302C230.04 564.399 230.021 564.487 229.979 564.569C229.946 564.638 229.87 564.709 229.752 564.78C229.644 564.849 229.486 564.91 229.278 564.962C229.082 565.012 228.825 565.061 228.509 565.107C228.172 565.157 227.897 565.186 227.684 565.196C227.48 565.205 227.322 565.19 227.209 565.153C227.096 565.116 227.014 565.069 226.963 565.012C226.92 564.943 226.898 564.86 226.894 564.764L226.769 559.733L223.232 560.252L223.373 565.281C223.375 565.366 223.355 565.45 223.313 565.531C223.282 565.611 223.212 565.686 223.104 565.756C222.996 565.825 222.838 565.886 222.63 565.938C222.434 565.988 222.167 566.038 221.83 566.088C221.503 566.136 221.239 566.164 221.036 566.172C220.833 566.18 220.669 566.167 220.546 566.131C220.433 566.094 220.35 566.047 220.299 565.99C220.257 565.921 220.239 565.837 220.246 565.74L220.089 560.714L218.589 560.934C218.41 560.96 218.248 560.882 218.103 560.699C217.968 560.514 217.865 560.174 217.792 559.68C217.755 559.427 217.739 559.209 217.744 559.025C217.75 558.842 217.771 558.693 217.808 558.58C217.845 558.467 217.897 558.384 217.965 558.331C218.031 558.268 218.111 558.229 218.206 558.215L220.038 557.946L219.914 553.367L218.319 553.601C218.14 553.628 217.978 553.549 217.833 553.366C217.698 553.182 217.595 552.842 217.522 552.347C217.448 551.842 217.454 551.481 217.54 551.264C217.627 551.047 217.76 550.925 217.939 550.899L219.833 550.621L219.725 545.926C219.711 545.831 219.726 545.749 219.769 545.678C219.811 545.596 219.891 545.52 220.01 545.449C220.129 545.378 220.292 545.316 220.499 545.264C220.705 545.202 220.971 545.146 221.297 545.099C221.624 545.051 221.889 545.028 222.094 545.03C222.297 545.022 222.455 545.036 222.568 545.073C222.681 545.111 222.753 545.164 222.785 545.235C222.826 545.294 222.853 545.365 222.865 545.449L222.96 550.162L226.497 549.642L226.357 544.953C226.355 544.867 226.375 544.783 226.417 544.702C226.459 544.62 226.534 544.545 226.642 544.475C226.761 544.404 226.924 544.343 227.131 544.291C227.337 544.228 227.608 544.172 227.945 544.123C228.272 544.075 228.537 544.052 228.742 544.054C228.945 544.046 229.103 544.06 229.216 544.097C229.329 544.135 229.401 544.189 229.433 544.259C229.474 544.318 229.496 544.39 229.497 544.476L229.624 549.183L231.14 548.961C231.319 548.935 231.476 549.019 231.613 549.214C231.758 549.397 231.866 549.731 231.937 550.215ZM223.041 552.908L223.164 557.487L226.686 556.971L226.578 552.389L223.041 552.908Z" fill="#696158"/>
<path d="M243.796 554.846L244.85 562.031C244.866 562.136 244.843 562.236 244.782 562.331C244.731 562.425 244.63 562.51 244.48 562.585C244.33 562.661 244.12 562.735 243.851 562.807C243.593 562.877 243.263 562.941 242.863 563C242.453 563.06 242.114 563.094 241.846 563.101C241.578 563.108 241.356 563.098 241.18 563.07C241.014 563.04 240.894 562.988 240.818 562.913C240.743 562.838 240.697 562.748 240.682 562.643L239.627 555.458L232.403 545.146C232.145 544.786 231.97 544.505 231.876 544.304C231.791 544.091 231.798 543.923 231.899 543.8C232.008 543.666 232.224 543.564 232.547 543.495C232.869 543.416 233.32 543.334 233.899 543.249C234.383 543.178 234.769 543.132 235.056 543.111C235.354 543.089 235.592 543.097 235.769 543.135C235.945 543.163 236.077 543.219 236.165 543.303C236.263 543.386 236.36 543.495 236.455 543.632L239.466 548.319C239.758 548.771 240.049 549.25 240.338 549.756C240.638 550.26 240.942 550.791 241.25 551.348L241.281 551.344C241.398 550.746 241.522 550.163 241.654 549.595C241.785 549.027 241.916 548.487 242.045 547.973L243.554 542.654C243.582 542.478 243.626 542.337 243.686 542.231C243.755 542.114 243.864 542.012 244.012 541.925C244.161 541.839 244.37 541.765 244.641 541.704C244.912 541.643 245.273 541.579 245.726 541.513C246.326 541.424 246.792 541.372 247.123 541.356C247.462 541.328 247.699 541.363 247.832 541.462C247.973 541.548 248.029 541.707 247.998 541.937C247.968 542.167 247.885 542.486 247.751 542.893L243.796 554.846Z" fill="#696158"/>
<path d="M263.728 551.952C263.905 553.152 263.907 554.27 263.737 555.306C263.566 556.342 263.213 557.265 262.675 558.075C262.138 558.885 261.414 559.556 260.503 560.088C259.591 560.62 258.488 560.981 257.194 561.171C255.941 561.355 254.826 561.341 253.848 561.129C252.871 560.918 252.028 560.526 251.32 559.952C250.612 559.378 250.04 558.629 249.603 557.704C249.166 556.778 248.856 555.695 248.674 554.453C248.498 553.252 248.495 552.134 248.666 551.098C248.845 550.05 249.204 549.127 249.743 548.327C250.28 547.517 250.999 546.847 251.9 546.317C252.811 545.785 253.914 545.424 255.209 545.234C256.472 545.049 257.593 545.062 258.57 545.273C259.546 545.474 260.382 545.862 261.08 546.437C261.788 547.011 262.36 547.76 262.797 548.685C263.234 549.61 263.545 550.699 263.728 551.952ZM259.662 552.711C259.56 552.016 259.408 551.387 259.208 550.825C259.016 550.251 258.757 549.768 258.43 549.375C258.104 548.982 257.701 548.697 257.224 548.519C256.757 548.341 256.191 548.3 255.528 548.397C254.939 548.484 254.439 548.67 254.029 548.956C253.618 549.232 253.301 549.601 253.079 550.063C252.855 550.516 252.712 551.048 252.652 551.659C252.6 552.258 252.629 552.931 252.738 553.678C252.84 554.373 252.993 555.007 253.195 555.579C253.396 556.141 253.654 556.62 253.97 557.014C254.297 557.407 254.699 557.692 255.176 557.87C255.653 558.036 256.217 558.072 256.87 557.976C257.47 557.888 257.975 557.706 258.387 557.431C258.796 557.145 259.113 556.775 259.337 556.323C259.561 555.871 259.699 555.345 259.751 554.746C259.801 554.136 259.772 553.458 259.662 552.711Z" fill="#696158"/>
<path d="M291.986 555.112C292.002 555.217 291.984 555.316 291.933 555.41C291.893 555.502 291.798 555.585 291.648 555.661C291.508 555.736 291.314 555.807 291.066 555.876C290.818 555.944 290.499 556.007 290.11 556.064C289.731 556.12 289.413 556.151 289.155 556.156C288.898 556.162 288.692 556.149 288.537 556.118C288.382 556.087 288.266 556.034 288.191 555.959C288.115 555.884 288.07 555.794 288.054 555.689L285.613 539.061L285.582 539.065L282.099 556.547C282.077 556.69 282.025 556.816 281.945 556.924C281.862 557.022 281.741 557.11 281.58 557.188C281.43 557.263 281.229 557.325 280.978 557.373C280.728 557.431 280.425 557.486 280.067 557.539C279.709 557.591 279.401 557.62 279.144 557.626C278.888 557.642 278.672 557.636 278.496 557.608C278.329 557.568 278.192 557.513 278.085 557.443C277.978 557.372 277.9 557.282 277.851 557.17L269.696 541.397L269.665 541.402L272.106 558.03C272.121 558.135 272.103 558.235 272.053 558.328C272.012 558.42 271.917 558.504 271.767 558.58C271.617 558.656 271.418 558.728 271.17 558.796C270.932 558.864 270.619 558.926 270.229 558.983C269.85 559.039 269.532 559.069 269.275 559.075C269.017 559.08 268.806 559.068 268.64 559.039C268.485 559.008 268.37 558.955 268.294 558.88C268.229 558.803 268.189 558.712 268.174 558.607L265.501 540.4C265.422 539.863 265.504 539.432 265.746 539.106C265.989 538.78 266.347 538.582 266.821 538.513L269.537 538.114C270.021 538.043 270.443 538.024 270.803 538.057C271.161 538.08 271.48 538.167 271.761 538.32C272.04 538.462 272.286 538.673 272.499 538.953C272.711 539.223 272.912 539.57 273.104 539.994L279.312 551.52L279.375 551.51L282.172 538.695C282.244 538.233 282.337 537.837 282.45 537.509C282.573 537.179 282.727 536.904 282.909 536.683C283.103 536.461 283.341 536.292 283.625 536.175C283.908 536.047 284.243 535.955 284.633 535.898L287.428 535.488C287.712 535.446 287.96 535.447 288.171 535.491C288.392 535.534 288.577 535.62 288.725 535.749C288.882 535.866 289.007 536.025 289.101 536.226C289.204 536.415 289.275 536.641 289.314 536.905L291.986 555.112Z" fill="#696158"/>
<path d="M308.125 545.161C308.196 545.645 308.138 546.019 307.951 546.283C307.774 546.546 307.496 546.705 307.118 546.76L298.543 548.019C298.631 548.619 298.78 549.157 298.989 549.631C299.208 550.094 299.495 550.476 299.852 550.779C300.217 551.07 300.655 551.269 301.165 551.377C301.686 551.483 302.289 551.486 302.973 551.385C303.668 551.283 304.272 551.146 304.784 550.974C305.295 550.792 305.731 550.615 306.093 550.444C306.464 550.26 306.769 550.102 307.008 549.97C307.245 549.828 307.443 549.745 307.601 549.722C307.695 549.708 307.777 549.718 307.847 549.751C307.915 549.773 307.977 549.828 308.033 549.917C308.089 550.005 308.135 550.138 308.172 550.316C308.218 550.481 308.26 550.695 308.298 550.959C308.332 551.19 308.356 551.391 308.371 551.561C308.383 551.72 308.388 551.86 308.384 551.979C308.38 552.097 308.363 552.202 308.333 552.292C308.302 552.372 308.254 552.455 308.192 552.539C308.139 552.622 307.97 552.749 307.683 552.92C307.396 553.091 307.025 553.275 306.57 553.471C306.113 553.656 305.586 553.836 304.988 554.01C304.391 554.194 303.745 554.337 303.05 554.439C301.798 554.623 300.674 554.627 299.681 554.45C298.697 554.272 297.843 553.908 297.117 553.358C296.391 552.809 295.798 552.068 295.339 551.135C294.89 550.201 294.569 549.076 294.375 547.76C294.191 546.507 294.189 545.357 294.369 544.309C294.547 543.25 294.895 542.328 295.414 541.542C295.932 540.745 296.606 540.098 297.436 539.6C298.277 539.1 299.255 538.768 300.371 538.604C301.55 538.431 302.581 538.457 303.464 538.683C304.357 538.907 305.117 539.29 305.746 539.832C306.372 540.364 306.873 541.032 307.25 541.837C307.626 542.642 307.887 543.54 308.032 544.529L308.125 545.161ZM304.105 544.589C303.973 543.469 303.618 542.628 303.041 542.068C302.473 541.495 301.689 541.282 300.689 541.429C300.184 541.503 299.755 541.663 299.404 541.908C299.064 542.152 298.791 542.455 298.586 542.819C298.39 543.17 298.257 543.577 298.185 544.039C298.122 544.489 298.116 544.963 298.167 545.461L304.105 544.589Z" fill="#696158"/>
<path d="M333.411 551.595C333.467 551.974 333.491 552.283 333.483 552.52C333.485 552.757 333.464 552.943 333.419 553.078C333.375 553.214 333.318 553.303 333.249 553.345C333.181 553.398 333.105 553.431 333.021 553.443C332.674 553.494 332.202 553.467 331.606 553.361C331.02 553.253 330.374 553.068 329.669 552.806C328.966 552.554 328.234 552.221 327.474 551.806C326.726 551.399 326.014 550.907 325.337 550.329C324.885 550.621 324.324 550.897 323.652 551.157C322.993 551.426 322.242 551.622 321.4 551.745C319.81 551.979 318.391 551.983 317.143 551.757C315.903 551.52 314.826 551.033 313.912 550.296C312.997 549.559 312.243 548.562 311.65 547.305C311.065 546.036 310.64 544.49 310.372 542.669C310.13 541.016 310.122 539.501 310.35 538.123C310.577 536.735 311.038 535.522 311.736 534.484C312.431 533.436 313.353 532.574 314.502 531.9C315.661 531.225 317.051 530.768 318.672 530.53C320.199 530.306 321.576 530.313 322.805 530.552C324.044 530.79 325.127 531.276 326.052 532.012C326.986 532.735 327.754 533.714 328.354 534.948C328.966 536.181 329.401 537.682 329.661 539.451C329.795 540.367 329.859 541.239 329.851 542.068C329.853 542.885 329.788 543.653 329.657 544.371C329.526 545.089 329.334 545.758 329.08 546.375C328.827 546.993 328.516 547.55 328.148 548.045C328.884 548.518 329.526 548.864 330.075 549.085C330.623 549.305 331.077 549.465 331.435 549.562C331.804 549.659 332.094 549.729 332.305 549.774C332.525 549.806 332.7 549.866 332.832 549.954C332.965 550.053 333.077 550.23 333.168 550.486C333.261 550.752 333.342 551.122 333.411 551.595ZM325.335 540.312C325.179 539.248 324.952 538.292 324.656 537.443C324.359 536.594 323.96 535.889 323.458 535.328C322.965 534.755 322.357 534.35 321.634 534.112C320.909 533.863 320.041 533.813 319.031 533.962C318.01 534.112 317.185 534.426 316.556 534.906C315.928 535.385 315.45 535.977 315.123 536.681C314.796 537.385 314.607 538.182 314.554 539.071C314.511 539.948 314.559 540.861 314.698 541.808C314.863 542.935 315.096 543.933 315.396 544.803C315.696 545.673 316.092 546.395 316.585 546.968C317.077 547.541 317.685 547.946 318.409 548.184C319.13 548.411 320.002 548.45 321.023 548.3C322.044 548.15 322.869 547.836 323.497 547.356C324.126 546.877 324.603 546.28 324.928 545.565C325.254 544.851 325.436 544.044 325.477 543.146C325.527 542.246 325.48 541.301 325.335 540.312Z" fill="#696158"/>
<path d="M348.065 546.912C348.08 547.017 348.068 547.116 348.027 547.207C347.986 547.289 347.9 547.366 347.771 547.439C347.652 547.51 347.484 547.572 347.266 547.626C347.06 547.688 346.794 547.743 346.468 547.791C346.12 547.842 345.834 547.868 345.608 547.869C345.394 547.879 345.221 547.867 345.087 547.833C344.952 547.799 344.854 547.749 344.79 547.683C344.725 547.606 344.685 547.515 344.67 547.41L344.431 545.784C343.775 546.74 343.073 547.488 342.325 548.029C341.586 548.567 340.786 548.9 339.922 549.026C338.954 549.169 338.115 549.13 337.405 548.912C336.706 548.692 336.111 548.338 335.62 547.851C335.14 547.363 334.758 546.773 334.474 546.084C334.198 545.382 333.982 544.494 333.824 543.421L332.559 534.799C332.543 534.694 332.557 534.6 332.598 534.519C332.649 534.425 332.744 534.341 332.884 534.267C333.034 534.191 333.234 534.124 333.484 534.066C333.742 533.996 334.061 533.933 334.44 533.877C334.829 533.82 335.153 533.789 335.41 533.783C335.666 533.767 335.871 533.775 336.026 533.806C336.192 533.835 336.313 533.887 336.388 533.962C336.462 534.027 336.507 534.112 336.522 534.217L337.691 542.176C337.799 542.913 337.929 543.469 338.081 543.844C338.233 544.22 338.424 544.536 338.656 544.792C338.896 545.037 339.175 545.216 339.493 545.331C339.82 545.433 340.183 545.455 340.583 545.397C341.088 545.322 341.567 545.064 342.018 544.621C342.48 544.177 342.948 543.56 343.424 542.77L342.049 533.406C342.034 533.3 342.047 533.207 342.089 533.126C342.14 533.032 342.235 532.948 342.374 532.874C342.525 532.798 342.724 532.731 342.974 532.673C343.222 532.604 343.541 532.541 343.93 532.484C344.32 532.427 344.643 532.396 344.901 532.39C345.156 532.374 345.362 532.382 345.517 532.413C345.672 532.444 345.787 532.497 345.863 532.572C345.937 532.636 345.981 532.721 345.997 532.826L348.065 546.912Z" fill="#696158"/>
<path d="M363.993 536.959C364.064 537.444 364.006 537.818 363.819 538.082C363.643 538.344 363.365 538.504 362.986 538.559L354.411 539.818C354.499 540.418 354.648 540.955 354.858 541.43C355.076 541.893 355.364 542.275 355.72 542.578C356.085 542.868 356.523 543.067 357.034 543.175C357.555 543.282 358.157 543.285 358.842 543.184C359.536 543.082 360.14 542.945 360.652 542.773C361.163 542.591 361.6 542.414 361.962 542.242C362.333 542.059 362.638 541.901 362.876 541.769C363.114 541.627 363.311 541.544 363.469 541.521C363.564 541.507 363.646 541.516 363.715 541.549C363.783 541.572 363.845 541.627 363.901 541.716C363.957 541.804 364.003 541.937 364.04 542.115C364.086 542.28 364.128 542.494 364.167 542.757C364.201 542.989 364.225 543.19 364.239 543.36C364.252 543.519 364.256 543.658 364.252 543.777C364.248 543.896 364.231 544.001 364.201 544.091C364.17 544.171 364.123 544.253 364.06 544.338C364.008 544.421 363.838 544.548 363.551 544.719C363.265 544.89 362.894 545.074 362.438 545.269C361.982 545.455 361.454 545.634 360.856 545.808C360.259 545.993 359.614 546.136 358.919 546.238C357.666 546.422 356.543 546.425 355.549 546.249C354.566 546.07 353.711 545.706 352.985 545.157C352.259 544.607 351.667 543.866 351.207 542.934C350.758 542 350.437 540.874 350.244 539.559C350.06 538.306 350.058 537.155 350.237 536.107C350.415 535.049 350.764 534.127 351.283 533.341C351.8 532.544 352.474 531.897 353.304 531.399C354.145 530.899 355.124 530.567 356.239 530.403C357.418 530.23 358.449 530.256 359.332 530.481C360.225 530.705 360.986 531.088 361.614 531.631C362.24 532.162 362.742 532.831 363.118 533.636C363.494 534.441 363.755 535.338 363.9 536.328L363.993 536.959ZM359.973 536.388C359.841 535.268 359.486 534.427 358.909 533.867C358.341 533.294 357.557 533.081 356.557 533.228C356.052 533.302 355.624 533.462 355.273 533.707C354.932 533.95 354.659 534.254 354.454 534.617C354.259 534.969 354.125 535.375 354.053 535.838C353.99 536.288 353.984 536.762 354.036 537.26L359.973 536.388Z" fill="#696158"/>
<path d="M381.731 541.97C381.748 542.085 381.736 542.189 381.696 542.281C381.654 542.363 381.574 542.439 381.455 542.51C381.337 542.581 381.168 542.644 380.95 542.697C380.743 542.749 380.481 542.798 380.166 542.845C379.829 542.894 379.553 542.924 379.34 542.934C379.126 542.943 378.947 542.932 378.802 542.899C378.668 542.865 378.564 542.816 378.49 542.752C378.425 542.675 378.384 542.579 378.367 542.463L378.138 540.9C377.526 541.786 376.852 542.503 376.115 543.052C375.389 543.6 374.541 543.944 373.573 544.087C372.499 544.244 371.558 544.173 370.751 543.872C369.952 543.559 369.264 543.085 368.687 542.449C368.12 541.811 367.662 541.04 367.314 540.134C366.965 539.217 366.713 538.238 366.56 537.196C366.376 535.943 366.343 534.797 366.459 533.758C366.586 532.718 366.856 531.807 367.268 531.026C367.68 530.245 368.243 529.609 368.956 529.117C369.668 528.625 370.525 528.306 371.525 528.159C372.315 528.043 373.054 528.101 373.744 528.333C374.433 528.555 375.139 528.93 375.861 529.458L374.742 521.831C374.726 521.726 374.739 521.627 374.779 521.536C374.83 521.442 374.925 521.358 375.065 521.284C375.213 521.198 375.412 521.12 375.66 521.051C375.908 520.983 376.227 520.92 376.616 520.863C377.006 520.805 377.329 520.774 377.586 520.769C377.844 520.763 378.051 520.781 378.207 520.823C378.362 520.854 378.478 520.907 378.553 520.982C378.629 521.056 378.674 521.147 378.69 521.252L381.731 541.97ZM376.402 533.138C375.728 532.505 375.1 532.038 374.518 531.736C373.947 531.433 373.377 531.323 372.808 531.407C372.293 531.482 371.864 531.68 371.524 531.999C371.193 532.305 370.943 532.692 370.775 533.157C370.617 533.621 370.52 534.13 370.483 534.684C370.455 535.226 370.482 535.776 370.563 536.334C370.65 536.923 370.782 537.49 370.958 538.034C371.135 538.578 371.361 539.056 371.636 539.467C371.921 539.866 372.261 540.171 372.658 540.382C373.054 540.592 373.526 540.657 374.074 540.577C374.348 540.537 374.605 540.461 374.847 540.351C375.098 540.228 375.342 540.058 375.579 539.84C375.826 539.621 376.071 539.348 376.314 539.022C376.555 538.686 376.813 538.282 377.088 537.812L376.402 533.138Z" fill="#696158"/>
<path d="M398.931 532.105C399.107 533.305 399.11 534.423 398.939 535.459C398.768 536.495 398.415 537.418 397.877 538.228C397.34 539.038 396.616 539.709 395.705 540.241C394.794 540.773 393.69 541.133 392.396 541.323C391.143 541.507 390.028 541.494 389.05 541.282C388.073 541.071 387.23 540.678 386.522 540.105C385.814 539.531 385.242 538.782 384.805 537.856C384.368 536.931 384.058 535.848 383.876 534.605C383.7 533.405 383.697 532.287 383.868 531.251C384.047 530.203 384.406 529.279 384.945 528.48C385.482 527.67 386.201 527 387.102 526.469C388.013 525.938 389.116 525.577 390.411 525.387C391.674 525.201 392.795 525.214 393.772 525.426C394.748 525.627 395.585 526.015 396.282 526.59C396.99 527.163 397.562 527.913 397.999 528.838C398.436 529.763 398.747 530.852 398.931 532.105ZM394.864 532.863C394.762 532.168 394.61 531.54 394.41 530.978C394.218 530.404 393.959 529.92 393.632 529.527C393.306 529.135 392.903 528.849 392.426 528.672C391.959 528.493 391.393 528.453 390.73 528.55C390.141 528.637 389.641 528.823 389.231 529.109C388.82 529.384 388.503 529.753 388.281 530.216C388.057 530.669 387.915 531.2 387.854 531.811C387.802 532.411 387.831 533.084 387.94 533.831C388.042 534.526 388.195 535.16 388.397 535.732C388.598 536.294 388.856 536.772 389.172 537.167C389.499 537.56 389.901 537.845 390.379 538.022C390.855 538.189 391.419 538.224 392.072 538.129C392.672 538.041 393.177 537.859 393.589 537.583C393.998 537.297 394.315 536.928 394.539 536.476C394.763 536.024 394.901 535.498 394.953 534.899C395.003 534.289 394.974 533.611 394.864 532.863Z" fill="#696158"/>
<path d="M415.332 535.924C415.377 536.229 415.399 536.489 415.398 536.705C415.407 536.908 415.394 537.076 415.36 537.21C415.325 537.344 415.271 537.449 415.196 537.525C415.13 537.588 415.05 537.627 414.955 537.641L404.691 539.148C404.343 539.199 404.034 539.142 403.762 538.977C403.5 538.801 403.335 538.481 403.267 538.018L400.652 520.206C400.584 519.742 400.651 519.394 400.853 519.16C401.064 518.914 401.344 518.765 401.691 518.714L411.892 517.217C411.987 517.203 412.075 517.217 412.156 517.258C412.238 517.3 412.315 517.386 412.388 517.515C412.459 517.634 412.52 517.797 412.572 518.004C412.633 518.199 412.687 518.455 412.733 518.771C412.777 519.066 412.798 519.321 412.797 519.536C412.805 519.739 412.793 519.907 412.759 520.041C412.724 520.176 412.675 520.28 412.611 520.354C412.545 520.417 412.464 520.456 412.37 520.47L405.074 521.541L405.807 526.53L411.981 525.624C412.076 525.61 412.165 525.629 412.248 525.682C412.34 525.722 412.421 525.801 412.492 525.92C412.562 526.028 412.623 526.186 412.675 526.393C412.736 526.589 412.788 526.834 412.831 527.129C412.876 527.434 412.897 527.689 412.895 527.893C412.903 528.097 412.89 528.265 412.856 528.399C412.821 528.523 412.765 528.617 412.688 528.682C412.622 528.745 412.542 528.784 412.447 528.798L406.273 529.704L407.119 535.468L414.477 534.388C414.572 534.374 414.661 534.393 414.744 534.446C414.836 534.486 414.917 534.565 414.989 534.684C415.06 534.802 415.121 534.965 415.173 535.173C415.234 535.368 415.287 535.619 415.332 535.924Z" fill="#696158"/>
<path d="M432.388 534.533C432.404 534.638 432.386 534.738 432.335 534.831C432.283 534.914 432.187 534.993 432.047 535.067C431.908 535.141 431.708 535.208 431.448 535.268C431.2 535.337 430.886 535.399 430.507 535.455C430.118 535.512 429.789 535.544 429.521 535.551C429.265 535.567 429.06 535.56 428.905 535.529C428.75 535.498 428.635 535.45 428.561 535.385C428.486 535.31 428.44 535.22 428.425 535.115L427.245 527.077C427.144 526.393 427.013 525.864 426.85 525.49C426.699 525.114 426.508 524.804 426.278 524.558C426.047 524.301 425.768 524.122 425.441 524.019C425.123 523.905 424.764 523.877 424.364 523.935C423.859 524.01 423.375 524.269 422.913 524.713C422.452 525.157 421.993 525.773 421.539 526.56L422.914 535.924C422.929 536.029 422.911 536.129 422.861 536.222C422.808 536.305 422.707 536.385 422.557 536.46C422.417 536.535 422.223 536.601 421.973 536.659C421.725 536.728 421.406 536.791 421.017 536.848C420.627 536.905 420.304 536.936 420.047 536.942C419.791 536.958 419.58 536.951 419.414 536.922C419.259 536.891 419.145 536.843 419.071 536.779C418.995 536.704 418.95 536.613 418.934 536.508L416.867 522.423C416.851 522.317 416.864 522.224 416.906 522.143C416.946 522.051 417.031 521.968 417.16 521.896C417.289 521.823 417.458 521.761 417.665 521.709C417.882 521.645 418.153 521.589 418.479 521.541C418.816 521.491 419.098 521.466 419.323 521.465C419.547 521.454 419.721 521.466 419.845 521.502C419.979 521.536 420.078 521.591 420.143 521.667C420.207 521.733 420.246 521.819 420.262 521.924L420.5 523.551C421.156 522.594 421.853 521.847 422.591 521.308C423.34 520.768 424.151 520.434 425.025 520.306C425.983 520.165 426.811 520.205 427.51 520.425C428.22 520.643 428.815 520.997 429.295 521.485C429.785 521.962 430.172 522.55 430.458 523.251C430.743 523.951 430.961 524.811 431.111 525.832L432.388 534.533Z" fill="#696158"/>
<path d="M450.299 529.291C450.337 529.554 450.36 529.782 450.367 529.974C450.382 530.155 450.385 530.316 450.373 530.457C450.36 530.588 450.334 530.705 450.295 530.808C450.257 530.91 450.189 531.033 450.091 531.176C449.993 531.309 449.789 531.495 449.48 531.734C449.181 531.971 448.803 532.215 448.345 532.465C447.896 532.703 447.369 532.926 446.765 533.132C446.172 533.338 445.517 533.493 444.801 533.598C443.401 533.804 442.106 533.773 440.916 533.507C439.726 533.241 438.674 532.739 437.759 532.003C436.843 531.255 436.08 530.27 435.471 529.048C434.861 527.825 434.431 526.361 434.181 524.656C433.926 522.919 433.931 521.343 434.196 519.927C434.462 518.512 434.943 517.285 435.64 516.247C436.337 515.209 437.23 514.368 438.319 513.724C439.418 513.079 440.667 512.654 442.067 512.448C442.636 512.365 443.19 512.332 443.73 512.349C444.271 512.367 444.774 512.422 445.239 512.515C445.713 512.596 446.144 512.71 446.531 512.858C446.919 513.005 447.191 513.142 447.35 513.27C447.517 513.385 447.634 513.486 447.701 513.573C447.768 513.66 447.827 513.775 447.881 513.918C447.934 514.061 447.98 514.231 448.02 514.43C448.071 514.627 448.118 514.872 448.161 515.167C448.207 515.483 448.236 515.753 448.247 515.977C448.259 516.201 448.248 516.386 448.216 516.53C448.183 516.675 448.135 516.784 448.07 516.858C448.006 516.932 447.926 516.976 447.832 516.99C447.674 517.013 447.46 516.953 447.192 516.81C446.922 516.656 446.576 516.497 446.154 516.333C445.741 516.157 445.253 516.019 444.69 515.919C444.136 515.806 443.49 515.804 442.753 515.913C441.943 516.032 441.241 516.307 440.648 516.738C440.065 517.157 439.592 517.71 439.231 518.398C438.878 519.073 438.65 519.865 438.547 520.773C438.443 521.68 438.472 522.682 438.633 523.776C438.809 524.977 439.083 526.001 439.455 526.85C439.836 527.686 440.294 528.356 440.831 528.858C441.377 529.358 441.993 529.704 442.676 529.893C443.369 530.071 444.121 530.101 444.932 529.982C445.669 529.874 446.293 529.696 446.805 529.449C447.316 529.191 447.745 528.929 448.093 528.663C448.452 528.395 448.74 528.159 448.957 527.955C449.185 527.75 449.368 527.637 449.504 527.617C449.61 527.601 449.697 527.61 449.766 527.643C449.836 527.676 449.901 527.752 449.961 527.872C450.022 527.992 450.08 528.167 450.135 528.395C450.188 528.613 450.243 528.912 450.299 529.291Z" fill="#696158"/>
<path d="M465.43 529.731C465.452 529.879 465.416 530.002 465.323 530.102C465.23 530.201 465.07 530.284 464.843 530.35C464.628 530.424 464.3 530.494 463.858 530.559C463.384 530.628 463.033 530.658 462.806 530.649C462.591 530.648 462.43 530.613 462.323 530.542C462.226 530.47 462.167 530.361 462.145 530.213L461.981 529.092C461.493 529.798 460.901 530.38 460.204 530.837C459.518 531.293 458.723 531.587 457.817 531.72C457.07 531.829 456.366 531.831 455.705 531.723C455.056 531.625 454.472 531.42 453.953 531.109C453.443 530.786 453.02 530.359 452.684 529.828C452.348 529.296 452.124 528.652 452.013 527.894C451.893 527.073 451.946 526.339 452.174 525.692C452.411 525.034 452.816 524.464 453.391 523.981C453.974 523.487 454.726 523.076 455.645 522.747C456.565 522.418 457.651 522.162 458.904 521.978L460.278 521.777L460.153 520.924C460.088 520.482 459.984 520.104 459.841 519.792C459.708 519.468 459.519 519.21 459.276 519.02C459.044 518.828 458.746 518.705 458.383 518.651C458.031 518.595 457.602 518.604 457.097 518.679C456.434 518.776 455.85 518.937 455.345 519.162C454.851 519.385 454.417 519.615 454.043 519.853C453.669 520.09 453.356 520.303 453.104 520.491C452.863 520.677 452.658 520.782 452.489 520.807C452.373 520.824 452.263 520.802 452.157 520.743C452.062 520.681 451.973 520.587 451.89 520.459C451.817 520.33 451.75 520.168 451.689 519.972C451.628 519.777 451.58 519.558 451.544 519.316C451.497 518.99 451.485 518.728 451.51 518.531C451.535 518.334 451.61 518.151 451.736 517.982C451.86 517.802 452.093 517.596 452.435 517.363C452.776 517.119 453.182 516.882 453.654 516.651C454.125 516.421 454.644 516.216 455.209 516.036C455.783 515.844 456.38 515.703 457.001 515.612C458.107 515.449 459.065 515.421 459.877 515.528C460.697 515.623 461.393 515.859 461.965 516.238C462.535 516.606 462.988 517.126 463.323 517.797C463.658 518.468 463.897 519.288 464.039 520.257L465.43 529.731ZM460.644 524.272L459.128 524.494C458.486 524.588 457.945 524.716 457.507 524.877C457.068 525.039 456.72 525.235 456.464 525.466C456.207 525.697 456.031 525.96 455.934 526.253C455.847 526.535 455.828 526.85 455.879 527.197C455.966 527.787 456.218 528.223 456.636 528.506C457.064 528.787 457.61 528.879 458.273 528.781C458.831 528.7 459.321 528.483 459.742 528.13C460.174 527.776 460.592 527.29 460.996 526.672L460.644 524.272Z" fill="#696158"/>
<path d="M478.735 523.665C478.852 524.465 478.803 525.192 478.587 525.848C478.382 526.502 478.036 527.074 477.549 527.565C477.062 528.056 476.459 528.456 475.741 528.766C475.025 529.086 474.23 529.311 473.356 529.439C472.829 529.516 472.318 529.548 471.821 529.535C471.337 529.531 470.896 529.499 470.5 529.439C470.103 529.368 469.769 529.288 469.497 529.199C469.226 529.109 469.025 529.021 468.894 528.932C468.761 528.834 468.646 528.673 468.549 528.451C468.45 528.218 468.367 527.87 468.299 527.407C468.254 527.101 468.229 526.858 468.224 526.676C468.217 526.483 468.227 526.331 468.253 526.219C468.279 526.098 468.32 526.016 468.379 525.975C468.436 525.924 468.512 525.891 468.607 525.877C468.722 525.86 468.901 525.904 469.142 526.008C469.392 526.101 469.697 526.201 470.057 526.31C470.417 526.418 470.828 526.508 471.291 526.58C471.763 526.651 472.284 526.644 472.853 526.561C473.211 526.508 473.521 526.425 473.784 526.311C474.057 526.196 474.284 526.055 474.464 525.889C474.654 525.721 474.787 525.524 474.861 525.298C474.935 525.072 474.953 524.822 474.912 524.548C474.866 524.233 474.727 523.979 474.494 523.787C474.271 523.583 473.983 523.421 473.632 523.301C473.292 523.179 472.905 523.074 472.473 522.987C472.051 522.898 471.612 522.796 471.154 522.68C470.706 522.563 470.26 522.419 469.816 522.248C469.382 522.075 468.977 521.844 468.601 521.555C468.236 521.264 467.918 520.897 467.649 520.453C467.39 520.007 467.212 519.452 467.114 518.789C467.015 518.115 467.057 517.48 467.238 516.883C467.418 516.276 467.726 515.736 468.162 515.264C468.598 514.791 469.152 514.392 469.825 514.068C470.508 513.742 471.292 513.514 472.177 513.384C472.619 513.319 473.05 513.288 473.469 513.291C473.9 513.292 474.29 513.316 474.641 513.361C474.992 513.406 475.292 513.47 475.54 513.551C475.787 513.623 475.964 513.694 476.072 513.764C476.188 513.822 476.273 513.89 476.327 513.968C476.38 514.036 476.426 514.126 476.464 514.239C476.5 514.341 476.536 514.475 476.571 514.642C476.616 514.797 476.656 514.995 476.691 515.238C476.733 515.522 476.756 515.755 476.762 515.937C476.777 516.118 476.772 516.264 476.745 516.375C476.729 516.485 476.693 516.566 476.636 516.617C476.577 516.658 476.506 516.684 476.421 516.697C476.327 516.711 476.172 516.68 475.956 516.604C475.739 516.517 475.469 516.433 475.145 516.352C474.831 516.269 474.467 516.204 474.052 516.157C473.645 516.099 473.189 516.107 472.684 516.181C472.326 516.233 472.021 516.316 471.768 516.428C471.516 516.54 471.316 516.677 471.167 516.839C471.019 517.001 470.917 517.182 470.86 517.384C470.802 517.575 470.789 517.776 470.82 517.987C470.868 518.313 471.008 518.572 471.24 518.764C471.473 518.956 471.764 519.112 472.116 519.232C472.467 519.353 472.858 519.457 473.29 519.544C473.733 519.629 474.178 519.731 474.626 519.848C475.082 519.953 475.532 520.091 475.977 520.262C476.432 520.432 476.847 520.662 477.223 520.951C477.599 521.24 477.922 521.606 478.191 522.051C478.459 522.484 478.641 523.022 478.735 523.665Z" fill="#696158"/>
<path d="M494.327 525.489C494.349 525.637 494.313 525.76 494.22 525.86C494.127 525.959 493.968 526.042 493.741 526.108C493.526 526.182 493.197 526.252 492.755 526.317C492.281 526.386 491.931 526.416 491.703 526.407C491.488 526.406 491.327 526.37 491.22 526.3C491.123 526.228 491.064 526.119 491.043 525.971L490.878 524.85C490.39 525.556 489.798 526.138 489.102 526.595C488.416 527.051 487.62 527.345 486.715 527.478C485.967 527.587 485.263 527.589 484.602 527.481C483.953 527.383 483.369 527.178 482.851 526.867C482.341 526.544 481.918 526.117 481.582 525.586C481.246 525.054 481.022 524.41 480.911 523.652C480.79 522.831 480.844 522.097 481.071 521.45C481.308 520.792 481.714 520.222 482.288 519.739C482.872 519.245 483.623 518.834 484.543 518.505C485.462 518.176 486.549 517.92 487.801 517.736L489.175 517.535L489.05 516.682C488.985 516.24 488.881 515.862 488.739 515.55C488.605 515.226 488.417 514.968 488.174 514.778C487.941 514.586 487.643 514.463 487.281 514.409C486.928 514.353 486.499 514.362 485.994 514.437C485.331 514.534 484.747 514.695 484.242 514.92C483.748 515.143 483.314 515.373 482.94 515.611C482.567 515.848 482.254 516.061 482.002 516.249C481.76 516.435 481.555 516.54 481.387 516.565C481.271 516.582 481.16 516.56 481.055 516.501C480.959 516.439 480.87 516.345 480.787 516.217C480.714 516.088 480.648 515.926 480.587 515.73C480.526 515.535 480.477 515.316 480.442 515.074C480.394 514.748 480.382 514.486 480.407 514.289C480.432 514.092 480.507 513.908 480.633 513.739C480.757 513.56 480.99 513.354 481.333 513.121C481.673 512.877 482.079 512.64 482.551 512.409C483.023 512.179 483.541 511.974 484.106 511.794C484.68 511.602 485.278 511.461 485.899 511.369C487.004 511.207 487.963 511.179 488.774 511.286C489.595 511.381 490.291 511.617 490.862 511.996C491.433 512.364 491.885 512.883 492.22 513.555C492.556 514.226 492.794 515.046 492.936 516.015L494.327 525.489ZM489.541 520.03L488.025 520.252C487.383 520.346 486.843 520.474 486.404 520.635C485.965 520.796 485.618 520.993 485.361 521.224C485.105 521.455 484.928 521.718 484.832 522.011C484.744 522.293 484.726 522.608 484.777 522.955C484.863 523.545 485.115 523.981 485.533 524.264C485.962 524.545 486.508 524.637 487.171 524.539C487.729 524.458 488.218 524.24 488.64 523.888C489.072 523.534 489.49 523.048 489.894 522.43L489.541 520.03Z" fill="#696158"/>
<g opacity="0.5">
<g clip-path="url(#clip0)">
<path opacity="0.6" d="M633.864 341.918C626.221 328.504 619.856 314.008 612.989 298.72C608.352 288.414 601.669 277.112 590.525 275.294C579.682 273.524 569.51 281.996 564.438 291.739C559.352 301.484 557.714 312.62 553.638 322.834C546.254 341.328 529.807 351.046 513.131 338.189C489.31 319.824 475.721 292.021 458.771 267.846C446.473 250.302 435.24 229.283 420.68 213.583C398.48 189.64 370.068 170.622 336.737 175.523C316.081 181.832 300.213 203.256 291.036 228.48C281.875 253.702 278.611 282.563 276.426 311.203C272.451 363.287 271.687 416.086 270.928 468.824C270.928 468.824 690.791 402.084 690.806 402.082C689.13 402.344 676.807 390.097 674.546 388.485C656.098 375.24 643.881 359.505 633.864 341.918Z" fill="#E2E2E2"/>
<g opacity="0.6">
<path d="M297.206 461.332C281.868 425.53 266.467 389.722 249.564 355.354C240.038 335.967 229.831 316.772 217.412 301.977C204.993 287.182 189.949 277.126 176.622 279.162C156.67 286.155 146.386 308.363 140.991 332.089C137.453 347.641 137.307 365.873 135.572 382.024C133.172 404.26 133.68 427.998 125.773 448.298C120.233 462.524 108.261 460.858 98.7858 450.214C93.5637 444.33 89.4018 437.04 83.75 431.806C78.0983 426.572 69.9833 423.815 64.4699 428.453C58.7906 433.223 58.361 443.225 58.7714 451.9C59.395 464.756 60.0525 476.898 59.7013 488.694C59.6315 491.266 59.4945 493.802 59.3121 496.344L297.21 461.362L297.206 461.332Z" fill="#E2E2E2"/>
</g>
<path d="M483.43 478.195L198.878 520.037C190.984 521.198 183.648 515.748 182.488 507.863L125.814 122.445C124.654 114.56 130.112 107.229 138.006 106.068L422.558 64.2262C430.452 63.0654 437.789 68.5146 438.948 76.4L495.625 461.833C496.782 469.703 491.325 477.034 483.43 478.195Z" fill="#C3C3C3"/>
<path d="M138.559 209.016L182.505 507.875C183.664 515.761 191.001 521.21 198.895 520.049L483.447 478.207C491.341 477.046 496.798 469.716 495.639 461.83L486.965 402.841L138.559 209.016Z" fill="#B2B2B2"/>
<path d="M470.884 460.532L205.825 499.508C202.604 499.981 199.603 497.753 199.13 494.535L145.588 130.417C145.115 127.199 147.347 124.201 150.568 123.728L415.627 84.7517C418.848 84.2781 421.848 86.5067 422.321 89.7243L475.864 453.843C476.337 457.06 474.105 460.058 470.884 460.532Z" fill="white"/>
<path d="M302.875 73.8301C302.832 73.4352 302.822 73.0508 302.762 72.643C300.832 59.5157 288.604 50.4337 275.462 52.3661C262.321 54.2986 253.225 66.5161 255.155 79.6434C255.213 80.0361 255.316 80.4222 255.389 80.8128L220.41 85.9563L225.739 122.196L343.183 104.926L337.854 68.6866L302.875 73.8301Z" fill="#B2B2B2"/>
<path d="M220.426 85.9541L225.755 122.194L343.184 104.926L220.426 85.9541Z" fill="#C3C3C3"/>
<path d="M285.915 87.7165C292.312 83.8765 294.384 75.5839 290.542 69.1944C286.7 62.8049 278.399 60.7382 272.002 64.5783C265.604 68.4183 263.533 76.7109 267.375 83.1004C271.217 89.4898 279.517 91.5566 285.915 87.7165Z" fill="#C3C3C3"/>
<path d="M268.136 68.1043C263.685 74.0831 264.929 82.5425 270.912 86.987C276.896 91.4314 285.365 90.1861 289.816 84.2073L268.136 68.1043Z" fill="#B2B2B2"/>
<path d="M343.198 104.924L225.754 122.193L226.12 124.686L343.565 107.416L343.198 104.924Z" fill="#B2B2B2"/>
<path d="M228.089 218.567L200.43 222.634C195.772 223.319 191.436 220.099 190.751 215.446L186.689 187.817C186.005 183.164 189.23 178.832 193.888 178.147L221.548 174.08C226.205 173.395 230.541 176.615 231.226 181.268L235.288 208.897C235.99 213.563 232.762 217.88 228.089 218.567Z" stroke="#C3C3C3" stroke-width="1.08955" stroke-miterlimit="10"/>
<path d="M202.09 201.988L217.288 210.679L241.058 179.945" stroke="#F3F4F6" stroke-width="3.26864" stroke-miterlimit="10"/>
<path d="M198.621 199.412L213.82 208.103L237.589 177.369" stroke="#FF4F00" stroke-width="3.26864" stroke-miterlimit="10"/>
<path d="M398.376 160.979L253.242 182.321C252.289 182.461 251.42 181.802 251.282 180.865C251.142 179.914 251.803 179.045 252.74 178.907L397.889 157.563C398.842 157.423 399.712 158.082 399.849 159.019C399.987 159.956 399.329 160.839 398.376 160.979Z" fill="#C3C3C3"/>
<path d="M399.486 168.533L254.352 189.875C253.399 190.015 252.529 189.355 252.392 188.419C252.252 187.467 252.912 186.599 253.849 186.461L398.999 165.117C399.952 164.977 400.821 165.636 400.959 166.573C401.096 167.509 400.438 168.393 399.486 168.533Z" fill="#C3C3C3"/>
<path d="M400.597 176.086L255.463 197.427C254.51 197.567 253.641 196.908 253.503 195.972C253.363 195.02 254.023 194.151 254.961 194.013L400.11 172.67C401.063 172.53 401.932 173.189 402.07 174.125C402.208 175.062 401.55 175.946 400.597 176.086Z" fill="#C3C3C3"/>
<path d="M401.708 183.639L256.574 204.98C255.621 205.12 254.752 204.461 254.614 203.524C254.474 202.573 255.135 201.704 256.072 201.566L401.221 180.222C402.174 180.082 403.044 180.742 403.181 181.678C403.319 182.615 402.661 183.499 401.708 183.639Z" fill="#C3C3C3"/>
<path d="M238.622 290.2L210.963 294.267C206.305 294.952 201.969 291.732 201.285 287.079L197.222 259.45C196.538 254.797 199.763 250.465 204.421 249.78L232.081 245.712C236.739 245.027 241.075 248.248 241.759 252.901L245.822 280.53C246.521 285.18 243.295 289.513 238.622 290.2Z" stroke="#C3C3C3" stroke-width="1.08955" stroke-miterlimit="10"/>
<path d="M212.623 273.62L227.819 282.297L251.591 251.578" stroke="#F3F4F6" stroke-width="3.26864" stroke-miterlimit="10"/>
<path d="M209.155 271.044L224.351 279.721L248.122 249.002" stroke="#FF4F00" stroke-width="3.26864" stroke-miterlimit="10"/>
<path d="M408.91 232.613L263.775 253.955C262.823 254.095 261.953 253.436 261.815 252.499C261.676 251.547 262.336 250.679 263.273 250.541L408.423 229.197C409.375 229.057 410.245 229.716 410.383 230.653C410.52 231.589 409.862 232.473 408.91 232.613Z" fill="#C3C3C3"/>
<path d="M410.021 240.166L264.887 261.507C263.934 261.648 263.065 260.988 262.927 260.052C262.787 259.1 263.447 258.231 264.385 258.093L409.534 236.75C410.487 236.61 411.356 237.269 411.494 238.205C411.632 239.142 410.974 240.026 410.021 240.166Z" fill="#C3C3C3"/>
<path d="M411.13 247.719L265.996 269.06C265.043 269.2 264.174 268.541 264.036 267.604C263.896 266.653 264.556 265.784 265.494 265.646L410.643 244.303C411.596 244.162 412.465 244.822 412.603 245.758C412.741 246.695 412.083 247.579 411.13 247.719Z" fill="#C3C3C3"/>
<path d="M412.242 255.272L267.107 276.614C266.155 276.754 265.285 276.095 265.147 275.158C265.008 274.206 265.668 273.338 266.605 273.2L411.755 251.856C412.707 251.716 413.577 252.375 413.715 253.312C413.852 254.249 413.194 255.132 412.242 255.272Z" fill="#C3C3C3"/>
<path d="M249.158 361.834L221.498 365.901C216.84 366.586 212.504 363.365 211.82 358.713L207.757 331.084C207.073 326.431 210.298 322.098 214.956 321.413L242.616 317.346C247.274 316.661 251.61 319.882 252.294 324.535L256.357 352.164C257.056 356.814 253.831 361.147 249.158 361.834Z" stroke="#C3C3C3" stroke-width="1.08955" stroke-miterlimit="10"/>
<path d="M223.157 345.254L238.353 353.931L262.124 323.212" stroke="#F3F4F6" stroke-width="3.26864" stroke-miterlimit="10"/>
<path d="M219.688 342.678L234.884 351.355L258.656 320.636" stroke="#FF4F00" stroke-width="3.26864" stroke-miterlimit="10"/>
<path d="M419.443 304.247L274.309 325.588C273.356 325.729 272.486 325.069 272.349 324.133C272.209 323.181 272.869 322.312 273.807 322.174L418.956 300.831C419.909 300.691 420.778 301.35 420.916 302.287C421.053 303.223 420.395 304.107 419.443 304.247Z" fill="#C3C3C3"/>
<path d="M420.554 311.799L275.42 333.14C274.467 333.28 273.598 332.621 273.46 331.685C273.32 330.733 273.98 329.864 274.918 329.726L420.067 308.383C421.02 308.243 421.889 308.902 422.027 309.838C422.165 310.775 421.507 311.659 420.554 311.799Z" fill="#C3C3C3"/>
<path d="M421.665 319.352L276.531 340.694C275.578 340.834 274.709 340.175 274.571 339.238C274.431 338.287 275.092 337.418 276.029 337.28L421.179 315.936C422.131 315.796 423.001 316.455 423.138 317.392C423.276 318.329 422.618 319.212 421.665 319.352Z" fill="#C3C3C3"/>
<path d="M422.775 326.906L277.641 348.248C276.688 348.388 275.818 347.729 275.681 346.792C275.541 345.84 276.201 344.972 277.139 344.834L422.288 323.49C423.241 323.35 424.11 324.009 424.248 324.946C424.385 325.882 423.727 326.766 422.775 326.906Z" fill="#C3C3C3"/>
<path d="M259.689 433.467L232.029 437.534C227.371 438.219 223.035 434.998 222.351 430.345L218.288 402.716C217.604 398.064 220.83 393.731 225.487 393.046L253.147 388.979C257.805 388.294 262.141 391.515 262.825 396.167L266.888 423.796C267.587 428.447 264.362 432.779 259.689 433.467Z" stroke="#C3C3C3" stroke-width="1.08955" stroke-miterlimit="10"/>
<path d="M233.692 416.888L248.888 425.565L272.659 394.846" stroke="#F3F4F6" stroke-width="3.26864" stroke-miterlimit="10"/>
<path d="M230.223 414.312L245.419 422.988L269.191 392.269" stroke="#FF4F00" stroke-width="3.26864" stroke-miterlimit="10"/>
<path d="M429.976 375.879L284.842 397.22C283.889 397.36 283.02 396.701 282.882 395.765C282.742 394.813 283.402 393.944 284.34 393.806L429.489 372.463C430.442 372.323 431.311 372.982 431.449 373.918C431.587 374.855 430.929 375.739 429.976 375.879Z" fill="#C3C3C3"/>
<path d="M431.087 383.433L285.953 404.774C285 404.914 284.131 404.255 283.993 403.318C283.853 402.367 284.513 401.498 285.451 401.36L430.6 380.016C431.553 379.876 432.423 380.536 432.56 381.472C432.698 382.409 432.04 383.292 431.087 383.433Z" fill="#C3C3C3"/>
<path d="M432.197 390.986L287.062 412.328C286.11 412.468 285.24 411.809 285.103 410.872C284.963 409.92 285.623 409.052 286.56 408.914L431.71 387.57C432.662 387.43 433.532 388.089 433.67 389.026C433.807 389.962 433.149 390.846 432.197 390.986Z" fill="#C3C3C3"/>
<path d="M433.308 398.538L288.174 419.879C287.221 420.02 286.352 419.36 286.214 418.424C286.074 417.472 286.734 416.603 287.672 416.466L432.821 395.122C433.774 394.982 434.643 395.641 434.781 396.578C434.919 397.514 434.261 398.398 433.308 398.538Z" fill="#C3C3C3"/>
</g>
</g>
<g clip-path="url(#clip1)">
<path d="M527.087 574.291H518.553V584.815H527.087V574.291Z" fill="#FF736C"/>
<path d="M518.627 582.436L523.081 583.802L527.236 582.436L530.96 590.974H496.43L509.418 586.705L518.627 582.436Z" fill="#2A2850"/>
<path d="M608.089 584.815H616.642L613.46 574.291H604.926L608.089 584.815Z" fill="#FF736C"/>
<path d="M615.875 582.436L611.402 583.802L607.265 582.436L603.541 590.974H638.053L625.083 586.705L615.875 582.436Z" fill="#2A2850"/>
<path d="M499.388 218.402C498.228 219.282 487.728 225.499 487.728 225.499L480.279 215.949L482.506 205.051L498.546 206.043L501.353 214.17C502.008 216.117 500.829 217.297 499.388 218.402Z" fill="#FF927D"/>
<path d="M498.527 206.044L500.941 213.178L493.53 216.155C492.126 216.773 490.554 216.886 489.056 216.492C485.8 215.612 483.666 212.466 484.078 209.115L484.565 205.201L498.527 206.044Z" fill="#E96664"/>
<path d="M494.896 215.574L501.316 216.511L504.835 210.481C505.527 209.395 505.19 207.953 504.105 207.26C503.019 206.568 501.578 206.905 500.886 207.991L494.896 215.574Z" fill="#F8B369"/>
<path d="M483.347 241.545L470.115 244.897L465.398 283.227L480.876 283.864L483.347 241.545Z" fill="white"/>
<path d="M663.992 272.442L640.859 269.52L646.156 227.445L669.289 230.366C680.892 231.827 689.127 242.425 687.668 254.054C686.189 265.663 675.596 273.902 663.992 272.442Z" fill="#FF927D"/>
<path opacity="0.2" d="M665.19 262.855L642.057 259.934L640.859 269.521L663.992 272.442C675.596 273.903 686.208 265.682 687.668 254.054C687.873 252.406 687.873 250.777 687.724 249.186C684.374 258.23 675.147 264.109 665.19 262.855Z" fill="#777470"/>
<path d="M638.035 269.165L392.689 237.501L397.967 195.444L643.331 227.108L638.035 269.165Z" fill="#FF4F00"/>
<path d="M348.969 210.63L392.689 237.501L397.967 195.444L348.969 210.63Z" fill="#FFF4DB"/>
<path opacity="0.2" d="M348.969 210.631L392.689 237.501L393.98 227.221L348.969 210.631Z" fill="#777470"/>
<path d="M363.567 206.117L348.969 210.63L361.995 218.644L363.567 206.117Z" fill="#2A2850"/>
<path d="M663.671 229.656L643.355 227.098L638.063 269.161L658.379 271.719L663.671 229.656Z" fill="#D3EAF5"/>
<path d="M663.89 227.861L656.945 226.986L651.199 272.653L658.145 273.528L663.89 227.861Z" fill="#D3EAF5"/>
<path opacity="0.2" d="M651.417 270.85L392.689 237.501L393.981 227.221L652.708 260.57L651.417 270.85Z" fill="#777470"/>
<path opacity="0.05" d="M655.403 239.074L396.676 205.724L397.967 195.444L656.694 228.794L655.403 239.074Z" fill="#777470"/>
<path opacity="0.15" d="M659.894 259.568L652.949 258.693L651.194 272.646L658.139 273.521L659.894 259.568Z" fill="#777470"/>
<path d="M572.51 373.521L575.972 364.551L587.651 363.596C589.803 363.353 591.712 364.664 591.918 366.499C592.124 368.334 590.552 370.019 588.399 370.263L572.51 373.521Z" fill="#F8B369"/>
<path d="M566.466 364.626L572.511 373.52L583.965 371.161L571.126 352.099L568.656 353.746C565.062 356.143 564.07 361.012 566.466 364.626Z" fill="#F8B369"/>
<path d="M575.936 361.612L614.865 320.81L594.352 316.035L571.145 352.1L575.936 361.612Z" fill="white"/>
<path d="M599.836 319.048C601.913 323.505 607.191 325.434 611.646 323.355C616.1 321.277 618.028 315.996 615.95 311.54C613.873 307.083 608.595 305.154 604.141 307.233C599.686 309.311 597.759 314.592 599.836 319.048Z" fill="white"/>
<path d="M602.83 322.607L614.864 309.78L572.884 259.971C569.291 255.084 562.198 254.504 557.874 258.773C553.551 263.024 553.963 278.079 558.791 281.767L602.83 322.607Z" fill="white"/>
<path d="M534.125 263.67L551.338 265.129L553.65 237.814L536.438 236.355L534.125 263.67Z" fill="#F8B369"/>
<path d="M472.306 277.424C468.039 277.705 464.801 281.413 465.081 285.682C465.362 289.951 469.068 293.191 473.335 292.891C477.602 292.61 480.84 288.903 480.559 284.633C480.279 280.364 476.573 277.143 472.306 277.424Z" fill="white"/>
<path d="M467.422 278.565L475.264 292.515L523.251 281.73C529.128 280.232 532.328 265.926 530.008 260.308C527.687 254.691 520.949 252.444 515.727 255.533L467.422 278.565Z" fill="white"/>
<path d="M566.595 357.622L571.817 266.226C573.034 261.338 569.758 256.488 564.78 255.814L521.977 254.26C516.999 253.586 512.526 257.387 512.413 262.424L503.654 373.52L566.595 357.622Z" fill="white"/>
<path d="M525.664 357.623L535.527 388.37L531.148 579.065H513.555L503.654 373.502L505.002 357.623H525.664Z" fill="#6A6257"/>
<path d="M525.664 357.623L535.303 395.373H542.228L604.252 579.065H618.663L574.999 382.546L566.595 357.623H525.664Z" fill="#6A6257"/>
<path d="M482.338 203.441L482.057 205.202C481.458 208.89 483.966 212.355 487.653 212.935L490.535 213.403C494.222 214.002 497.685 211.493 498.265 207.804L498.546 206.044L482.338 203.441Z" fill="#F8B369"/>
<path d="M532.607 254.635L545.147 255.084L540.056 262.705V323.412L532.701 338.897L525.926 320.229L535.359 262.218L532.607 254.635Z" fill="#FF4F00"/>
<path d="M530.644 205.969C528.154 211.024 527.05 226.716 534.05 224.3C541.05 221.866 540.675 209.92 540.675 209.92C540.675 209.92 536.464 194.116 530.644 205.969Z" fill="#3B3B3B"/>
<path d="M561.393 220.593C558.735 231.547 557.725 238.082 551.156 242.763C541.255 249.804 528.491 241.49 527.836 229.955C527.237 219.582 531.729 204.208 543.314 201.737C554.73 199.321 564.051 209.639 561.393 220.593Z" fill="#F5B16F"/>
<path d="M555.834 211.66C549.452 215.536 550.519 228.063 559.334 231.359C568.131 234.655 570.058 228.213 568.617 227.539C571.668 226.902 583.646 221.51 578.892 211.735C576.01 205.799 567.195 206.773 567.195 206.773C567.195 206.773 577.62 196.512 561.225 188.235C541.18 178.142 538.148 196.661 538.148 196.661C538.148 196.661 525.253 195.22 526.338 203.852C527.779 215.293 539.889 206.155 539.889 206.155C539.889 206.155 540.618 216.229 555.834 211.66Z" fill="#3B3B3B"/>
<path d="M538.821 200.987C538.578 200.987 538.354 200.838 538.279 200.594C538.148 200.257 535.415 192.056 539.608 186.719C542.34 183.236 547.337 181.85 554.468 182.581C554.786 182.618 555.029 182.899 554.992 183.217C554.954 183.536 554.692 183.779 554.356 183.742C547.655 183.049 542.995 184.303 540.525 187.431C536.707 192.262 539.345 200.126 539.383 200.201C539.495 200.519 539.327 200.838 539.027 200.95C538.934 200.987 538.878 200.987 538.821 200.987Z" fill="#3B3B3B"/>
<path d="M545.727 224.131C545.502 225.03 544.866 225.667 544.267 225.573C543.668 225.442 543.369 224.618 543.575 223.72C543.799 222.821 544.435 222.184 545.034 222.278C545.615 222.39 545.914 223.233 545.727 224.131Z" fill="#263239"/>
<path d="M535.434 222.072C535.209 222.971 534.573 223.607 533.974 223.514C533.375 223.383 533.076 222.559 533.282 221.66C533.506 220.761 534.142 220.124 534.741 220.218C535.34 220.33 535.64 221.154 535.434 222.072Z" fill="#263239"/>
<path d="M538.596 223.178C538.596 223.178 535.283 227.99 532.42 230.069C533.674 231.885 536.575 231.754 536.575 231.754L538.596 223.178Z" fill="#E8575A"/>
<path d="M539.721 234.936C543.37 235.236 545.579 233.101 545.672 233.008C545.785 232.895 545.785 232.727 545.672 232.615C545.56 232.502 545.392 232.502 545.279 232.615C545.242 232.652 542.734 235.068 538.729 234.244C538.579 234.206 538.429 234.3 538.411 234.468C538.373 234.599 538.467 234.768 538.635 234.787C539.009 234.88 539.365 234.918 539.721 234.936Z" fill="#263239"/>
<path d="M549.677 221.623C549.77 221.623 549.864 221.623 549.939 221.585C550.22 221.454 550.332 221.136 550.201 220.855C548.966 218.121 546.458 217.784 546.345 217.765C546.065 217.709 545.765 217.934 545.747 218.234C545.709 218.533 545.915 218.814 546.214 218.833C546.327 218.852 548.236 219.151 549.209 221.286C549.321 221.492 549.49 221.604 549.677 221.623Z" fill="#263239"/>
<path d="M532.87 215.855C533.038 215.893 533.226 215.893 533.375 215.761C535.322 214.226 537.268 214.825 537.287 214.825C537.586 214.919 537.886 214.769 537.961 214.469C538.054 214.189 537.905 213.87 537.605 213.777C537.493 213.739 535.097 213.009 532.683 214.881C532.458 215.069 532.402 215.406 532.589 215.649C532.683 215.762 532.776 215.836 532.87 215.855Z" fill="#263239"/>
<path d="M553.588 229.843C553.588 229.843 560.494 226.847 565.622 227.222C570.75 227.578 568.617 227.54 568.617 227.54" fill="white"/>
<path d="M553.588 229.843C553.588 229.843 560.494 226.847 565.622 227.222C570.75 227.578 568.617 227.54 568.617 227.54" stroke="white" stroke-width="1.08955" stroke-miterlimit="10"/>
<path d="M528.734 219.694C528.734 219.694 524.86 231.753 554.992 228.439C554.992 228.439 558.567 235.348 556.808 237.165C555.048 239 543.688 252.987 530.774 239.019C525.365 233.139 528.734 219.694 528.734 219.694Z" fill="white"/>
<path d="M528.303 227.222C528.303 227.222 534.273 235.067 549.321 231.322C549.321 231.322 534.273 237.895 528.303 227.222Z" fill="#E2E2E2"/>
<path d="M530.773 237.165C530.773 237.165 536.8 243.045 549.807 239.169C549.807 239.169 537.268 245.685 530.773 237.165Z" fill="#E2E2E2"/>
<path d="M528.303 231.734C528.303 231.734 533.206 239.842 553.812 233.738C553.812 233.757 532.888 242.145 528.303 231.734Z" fill="#E2E2E2"/>
<path d="M564.182 233.682C562.161 235.948 559.298 237.071 556.808 237.165C553.065 237.296 552.055 233.757 553.833 230.648C555.423 227.877 559.279 224.45 562.685 225.78C566.017 227.072 566.503 231.098 564.182 233.682Z" fill="#F5B16F"/>
</g>
<defs>
<clipPath id="clip0">
<rect y="92.8867" width="638.475" height="455.431" transform="rotate(-8.36517 0 92.8867)" fill="white"/>
</clipPath>
<clipPath id="clip1">
<rect x="348.969" y="182.394" width="338.849" height="408.581" fill="white"/>
</clipPath>
</defs>
</svg>
