<svg width="21" height="21" viewBox="0 0 21 21" fill="none" xmlns="http://www.w3.org/2000/svg">
<path d="M1.08364 19.9165L1.08347 19.9163C0.880409 19.7129 0.802112 19.4163 0.879112 19.1392M1.08364 19.9165L2.54326 13.6936C2.57312 13.5858 2.6303 13.4877 2.7095 13.4085L14.2653 1.85367C15.4037 0.715443 17.2492 0.715443 18.3875 1.85367L19.1476 2.61367C20.2841 3.75266 20.2841 5.59649 19.1476 6.73548L7.59199 18.2906M1.08364 19.9165C1.28701 20.1195 1.58362 20.1977 1.86064 20.1211L1.86069 20.1211M1.08364 19.9165L1.86069 20.1211M0.879112 19.1392L1.02364 19.1793L0.87908 19.1393L0.879112 19.1392ZM0.879112 19.1392L2.39871 13.6536C2.43547 13.5209 2.50591 13.3999 2.60344 13.3024L14.1593 1.7476C15.3562 0.5508 17.2967 0.5508 18.4936 1.7476L19.2536 2.5076L19.2538 2.50772C20.4487 3.70526 20.4487 5.64389 19.2538 6.84143L19.2536 6.84155L7.69805 18.3966L7.59199 18.2906M7.59199 18.2906L7.69805 18.3966C7.60052 18.4941 7.4796 18.5646 7.34688 18.6013L1.86069 20.1211M7.59199 18.2906L1.86069 20.1211M18.1255 5.71369L17.5447 6.29439L14.7065 3.45642L15.2876 2.87561L15.2876 2.87559C15.8613 2.30192 16.7916 2.30192 17.3653 2.87559L17.3653 2.8756L18.1254 3.63544C18.1255 3.63549 18.1256 3.63555 18.1256 3.6356C18.6984 4.21008 18.6983 5.13956 18.1255 5.71369ZM4.33297 13.8295L13.5784 4.58462L16.4164 7.42236L7.17072 16.6672L4.33297 13.8295ZM2.79298 18.2073L3.58742 15.3399L5.66039 17.4129L2.79298 18.2073Z" fill="#696158" stroke="#696158" stroke-width="0.3"/>
</svg>
