<svg width="19" height="19" viewBox="0 0 19 19" fill="none" xmlns="http://www.w3.org/2000/svg">
<path d="M17.3875 0.853671C16.2492 -0.284557 14.4037 -0.284557 13.2653 0.853671L1.7095 12.4085C1.6303 12.4877 1.57312 12.5858 1.54326 12.6936L0.0236362 18.1793C-0.0388594 18.4042 0.0246482 18.6451 0.189616 18.8103C0.354837 18.9753 0.59571 19.0388 0.820643 18.9765L6.30684 17.4568C6.41462 17.4269 6.51279 17.3697 6.59199 17.2906L18.1476 5.73548C19.2841 4.59649 19.2841 2.75266 18.1476 1.61367L17.3875 0.853671ZM3.12083 12.8295L12.5784 3.3725L15.6285 6.42236L6.17071 15.8793L3.12083 12.8295ZM2.51156 14.052L4.94838 16.4888L1.57767 17.4226L2.51156 14.052ZM17.2317 4.81963L16.5447 5.50652L13.4943 2.4564L14.1815 1.76952C14.8138 1.13728 15.839 1.13728 16.4713 1.76952L17.2317 2.52951C17.8629 3.16251 17.8629 4.18689 17.2317 4.81963V4.81963Z" fill="#696158"/>
</svg>
