<svg width="95" height="86" viewBox="0 0 95 86" fill="none" xmlns="http://www.w3.org/2000/svg">
<g style="mix-blend-mode:multiply">
<ellipse opacity="0.35" cx="8.44554" cy="47.8336" rx="8.44554" ry="8.6969" fill="#F2F2F2"/>
<path d="M49.2375 49.7612L58.5161 68.851L70.5238 56.6778L92.9016 63.8711V2.1748L26.041 42.5679L49.2375 49.7612Z" fill="white"/>
<path d="M93.5938 0.207162C93.1164 -0.0734039 92.5292 -0.0686752 92.0563 0.219457L64.0063 17.3C63.2786 17.743 63.0376 18.7096 63.4678 19.4589C63.8979 20.2081 64.8365 20.4563 65.5644 20.0134L85.6898 7.7585L48.203 47.8122L29.5583 41.9383L53.8905 27.1218C54.6182 26.6786 54.8592 25.7121 54.429 24.9627C53.9989 24.2136 53.0601 23.965 52.3324 24.4082L25.0134 41.0434C24.4914 41.3614 24.2007 41.9665 24.2725 42.5867C24.3443 43.207 24.7648 43.7249 25.3446 43.9076L47.6109 50.9224L57.4343 69.3346C57.4445 69.3537 57.4551 69.3698 57.466 69.3841C57.6299 69.6656 57.8756 69.8956 58.182 70.0283C58.3738 70.1114 58.5754 70.1519 58.7756 70.1519C59.1679 70.1519 59.5541 69.9965 59.8457 69.7028L71.141 58.3352L92.3875 65.0287C92.5344 65.0749 92.6852 65.0978 92.8352 65.0978C93.1591 65.0978 93.479 64.9918 93.7457 64.7887C94.1358 64.4914 94.366 64.0212 94.366 63.5215V1.57626C94.366 1.01024 94.0712 0.487571 93.5938 0.207162ZM57.5177 51.8938C57.3404 52.1575 57.2454 52.4705 57.2454 52.7913V62.4332L50.5376 49.8605L80.2203 18.1454L57.5177 51.8938ZM60.3067 64.8312V54.922L67.8054 57.2845L60.3067 64.8312ZM91.3047 61.391L61.2274 51.9154L91.3047 7.20398V61.391Z" fill="#1AA9A3"/>
<path d="M38.3929 55.2457C37.6927 54.5249 36.5581 54.5249 35.8578 55.2457L19.1246 72.4769C18.4246 73.1977 18.4246 74.3665 19.1246 75.0874C19.4748 75.4477 19.9335 75.6279 20.3922 75.6279C20.8509 75.6279 21.3096 75.4478 21.6597 75.0873L38.3929 57.8561C39.0929 57.1354 39.0929 55.9667 38.3929 55.2457Z" fill="#1AA9A3"/>
<path d="M16.1064 78.1995C15.4063 77.4791 14.2717 77.479 13.5715 78.1997L9.4488 82.4451C8.74884 83.1659 8.74884 84.3347 9.4488 85.0556C9.79887 85.4159 10.2576 85.5961 10.7163 85.5961C11.175 85.5961 11.6337 85.4158 11.9837 85.0555L16.1064 80.81C16.8064 80.0892 16.8064 78.9205 16.1064 78.1995Z" fill="#1AA9A3"/>
<path d="M34.4932 82.3377C34.16 81.9944 33.6975 81.7969 33.2261 81.7969C32.7527 81.7969 32.2922 81.9944 31.9588 82.3377C31.6254 82.681 31.4336 83.1554 31.4336 83.6427C31.4336 84.1282 31.6252 84.6044 31.9588 84.9477C32.2922 85.291 32.7547 85.4885 33.2261 85.4885C33.6975 85.4885 34.16 85.291 34.4932 84.9477C34.8266 84.6044 35.0186 84.1282 35.0186 83.6427C35.0186 83.1554 34.8268 82.681 34.4932 82.3377Z" fill="#1AA9A3"/>
<path d="M47.8273 68.6021C47.1277 67.8813 45.9931 67.8813 45.2924 68.6021L36.4293 77.7288C35.7293 78.4496 35.7293 79.6184 36.4293 80.3392C36.7793 80.6997 37.238 80.8798 37.6967 80.8798C38.1554 80.8798 38.6141 80.6995 38.9642 80.3392L47.8273 71.2125C48.5273 70.4917 48.5273 69.3229 47.8273 68.6021Z" fill="#1AA9A3"/>
<path d="M78.4158 67.9008C77.7156 67.1802 76.581 67.1802 75.8809 67.9008L66.9937 77.0524C66.2938 77.7732 66.2938 78.942 66.9937 79.663C67.3438 80.0233 67.8025 80.2036 68.2612 80.2036C68.7199 80.2036 69.1786 80.0233 69.5287 79.663L78.4158 70.5114C79.1158 69.7906 79.1158 68.6218 78.4158 67.9008Z" fill="#1AA9A3"/>
</g>
</svg>
